<svg width="540" height="390" viewBox="0 0 540 390" fill="none" xmlns="http://www.w3.org/2000/svg">
<path d="M204.037 142.624C159.725 144.584 113.089 173.214 89.4126 198.818C42.113 249.919 69.3023 307.107 111.763 333.968C115.746 336.492 172.546 371.41 221.415 353.257C267.334 336.202 259.084 289.773 302.459 273.718C352.759 255.095 393.454 306.75 449.978 288.516C490.923 275.3 514.553 233.614 517.693 205.643C523.169 157.496 471.666 117.925 421.031 122.923C374.505 127.518 358.086 166.842 308.578 171.301C260.476 175.632 255.269 140.374 204.037 142.624Z" fill="#E5E5E5"/>
<path fill-rule="evenodd" clip-rule="evenodd" d="M349.693 268.273C347.554 270.749 344.395 272.587 341.971 274.85C339.425 277.228 336.663 279.306 334.127 281.655C322.943 267.976 307.622 259.589 294.349 248.238C288.057 242.856 283.421 235.556 280.028 228.065C278.289 224.225 277.004 220.272 275.999 216.181C275.546 214.338 275.103 212.501 274.807 210.633C274.449 208.371 274.356 208.178 272.831 206.413C272.174 205.653 270.902 203.433 269.617 203.678C268.534 203.884 266.555 207.18 265.871 207.994C262.582 211.911 259.394 215.946 255.931 219.711C250.633 225.471 245.81 231.14 240.892 237.245C230.83 249.736 219.976 261.495 209.024 273.248C208.211 274.12 206.317 276.676 205.15 277.02C203.731 277.437 201.425 275.696 199.996 274.722C196.547 272.372 193.828 269.463 190.879 266.551C185.125 260.867 181.229 252.889 178.608 245.298C177.038 240.754 176.018 236.044 174.399 231.516C173.724 229.629 172.194 227.309 172.971 225.665C173.202 225.175 174.674 223.873 175.193 223.774C175.807 223.656 176.83 224.498 177.044 224.44C179.08 223.882 177.95 221.749 179.162 220.601C179.848 219.95 183.341 220.045 184.384 219.687C188.198 218.378 191.619 215.881 195.224 214.39C210.315 208.151 225.59 202.082 238.618 191.894C241.997 189.252 244.242 187.266 248.274 185.559C252.348 183.833 256.443 182.294 260.6 180.788C264.268 179.459 267.956 178.214 271.745 177.261C275.842 176.232 281.654 174.926 285.748 176.252C293.787 178.857 296.383 185.485 299.584 192.477C303.915 201.938 309.152 210.89 314.83 219.597C325.752 236.351 339.035 251.384 349.693 268.273Z" fill="#5D4795"/>
<path fill-rule="evenodd" clip-rule="evenodd" d="M107.59 120.162C107.148 119.938 103.694 121.345 103.115 121.56C100.799 122.419 98.6179 123.848 96.4364 125.01C98.1083 127.046 99.7807 129.083 101.452 131.119C103.091 127.097 105.197 123.778 107.59 120.162ZM108.73 145.19C108.162 145.254 112.964 156.803 113.525 158.1C115.566 162.816 117.709 167.486 119.777 172.191C121.78 176.75 124.322 180.944 126.882 185.203C129.072 188.845 131.325 194.498 134.628 197.195C132.542 187.935 132.817 177.288 126.834 169.512C120.632 161.452 114.501 153.581 108.73 145.19ZM349.693 268.684C340.426 253.999 328.824 241.007 319.16 226.584C313.749 218.507 308.482 210.328 303.927 201.731C300.614 195.478 298.555 186.556 293.438 181.775C291.183 179.668 288.773 177.607 285.747 176.663C281.606 175.372 275.905 176.652 271.745 177.673C263.993 179.575 256.42 182.528 249.077 185.63C241.629 188.776 235.275 194.428 228.546 198.968C221.327 203.84 213.513 207.388 205.425 210.495C198.383 213.2 192.119 217.083 185.114 219.805C183.718 220.348 180.87 220.268 179.699 220.976C178.437 221.737 178.934 223.987 177.402 224.817C176.711 225.191 176.481 223.834 175.951 223.856C175.302 223.883 174.71 224.645 174.085 225.128C171.539 227.093 173.099 228.404 174.107 231.108C177.393 239.92 179.158 248.885 183.771 257.204C187.564 264.042 192.993 270.169 199.384 274.696C200.356 275.385 203.525 278.055 204.666 277.877C205.694 277.718 207.784 274.985 208.493 274.243C211.712 270.875 214.653 267.252 217.87 263.878C222.84 258.665 227.625 253.313 232.448 248.028C238.047 241.894 243.003 234.943 248.046 228.389C250.366 225.374 253.352 222.918 255.931 220.122C259.398 216.362 262.582 212.321 265.871 208.405C266.866 207.221 268.533 204.19 270.08 204.225C271.163 204.25 273.074 206.803 273.641 207.604C275.748 210.578 275.738 215.949 276.786 219.661C279.343 228.714 283.952 237.555 290.275 244.541C296.562 251.488 304.616 256.428 312.052 262.012C320.107 268.061 327.739 274.252 334.127 282.066C336.662 279.717 339.425 277.639 341.97 275.262C344.395 272.997 347.554 271.16 349.693 268.684ZM230.4 310.232C232.201 310.25 235.252 311.359 236.864 310.691C232.083 305.398 227.693 300.856 221.644 296.976C215.367 292.951 209.111 288.961 203.014 284.667C190.728 276.013 181.691 265.751 176.558 251.339C175.237 247.628 174.352 243.736 173.383 239.921C172.862 237.867 171.825 228.255 170.064 227.425C169.02 226.933 161.167 232.456 159.923 233.144C157.014 234.754 154.094 236.003 151.087 237.262C144.622 239.971 137.957 242.037 131.102 243.762C122.883 245.83 117.285 242.408 112.193 235.944C106.417 228.61 101.617 220.335 96.335 212.633C93.9332 209.13 91.9435 205.633 90.1698 201.769C89.0089 199.241 84.4047 192.42 85.9956 189.727C90.5345 193.185 92.1675 200.06 95.2594 204.691C99.1129 210.461 103.456 215.902 107.329 221.667C110.586 226.514 113.909 232.389 118.721 235.874C122.954 238.939 126.975 237.997 131.531 236.619C137.052 234.95 142.775 234.127 148.186 232.056C154.041 229.816 159.581 226.638 165.294 224.046C167.957 222.837 171.146 222.151 173.656 220.644C175.819 219.346 175.497 218.661 175.655 215.897C175.841 212.673 176.055 209.446 176.197 206.219C176.293 204.051 175.121 201.111 175.916 199.492C169.43 200.617 163.091 202.125 156.651 203.458C153.125 204.188 149.724 205.09 146.162 205.664C144.804 205.882 142.948 205.876 141.732 206.468C140.762 206.189 140.268 206.366 140.249 206.999C140.202 207.343 140.129 207.682 140.028 208.015C138.039 208.92 136.883 206.978 135.158 205.116C133.029 202.817 131.435 200.228 129.874 197.527C126.382 191.488 122.358 185.808 119.127 179.599C115.834 173.269 113.159 166.492 110.367 159.925C107.805 153.9 106.165 147.384 103.335 141.501C102.072 138.876 100.471 136.705 98.6014 134.486C97.0587 132.656 94.6854 128.707 92.3816 127.867C91.7725 127.644 90.1773 128.018 89.4854 127.969C88.1061 127.87 86.8771 127.363 85.4656 127.474C82.4098 127.714 79.0782 129.647 76.6362 131.347C78.2143 132.755 82.162 134.466 79.3264 137.002C76.5746 139.463 75.0547 135.048 74.0047 133.113C69.0599 137.176 69.7747 142.779 69.2035 148.52C68.9051 151.517 68.1203 154.469 67.6139 157.421C67.2492 159.546 67.505 161.744 67.4008 163.913C67.1351 169.426 66.5814 174.702 66.6075 180.138C66.6368 185.947 67.0323 191.558 67.497 197.326C68.2789 207.036 70.0707 216.75 71.6071 226.383C72.4715 231.798 73.6547 237.059 74.8032 242.386C76.1066 248.433 78.5179 254.16 79.8701 260.19C81.2479 258.437 82.2842 258.429 84.5127 258.661C86.2268 258.84 87.3782 258.432 87.2778 260.812C87.2129 262.357 85.8516 263.536 84.3455 263.805C82.3813 264.157 81.714 263.176 80.7018 261.687C80.465 264.506 82.3596 267.454 83.1088 270.207C83.8179 272.816 84.2877 275.374 85.4794 277.871C86.6421 280.307 87.6377 282.71 88.8142 285.123C89.3561 286.233 89.8628 287.361 90.4108 288.468C90.6879 289.029 91.0142 289.801 91.4277 290.274C92.3977 291.381 92.2433 290.845 93.3786 291.476C95.8519 292.851 94.9231 292.508 94.9809 295.347C95.0373 298.148 96.4724 300.205 98.7738 301.779C103.656 305.119 108.472 306.048 114.023 307.736C119.195 309.309 124.643 310.658 130.12 310.627C136.827 310.59 143.446 309.71 150.153 309.621C157.554 309.523 165.025 309.563 172.409 309.819C175.452 309.924 178.277 310.06 181.214 310.837C184.624 311.74 187.924 311.382 191.439 311.245C198.939 310.953 206.697 310.372 214.098 310.32C219.427 310.282 225.05 309.91 230.4 310.232ZM424.868 313.141C426.201 313.846 429.19 313.556 430.53 313.361C432.891 313.016 433.144 312.08 434.642 309.973C437.22 306.345 439.314 302.87 440.831 298.667C443.734 290.624 444.92 282.395 446.194 273.981C447.611 264.632 445.024 254.941 444.099 245.655C443.886 243.524 443.595 241.413 443.259 239.299C443.057 238.035 443.005 233.735 442.174 232.64C440.577 230.538 433.15 232.234 430.23 232.424C422.08 232.957 413.876 233.082 405.73 233.174C401.386 233.223 397.018 233.405 392.717 233.439C390.742 233.455 388.811 233.357 386.829 233.164C386.166 233.1 385.519 232.947 384.851 232.911C382.564 232.784 382.736 232.452 382.145 234.478C381.11 238.028 381.906 242.545 381.634 246.229C381.271 251.153 381.074 256.146 381.164 261.08C381.247 265.639 381.092 270.188 381.262 274.758C381.333 276.65 381.54 278.193 382.038 280C382.603 282.043 383.223 286.817 384.628 288.231C384.787 288.392 385.981 288.017 386.298 288.418C386.787 289.035 386.697 290.342 387.032 290.741C388.118 292.033 390.36 292.135 391.987 292.716C396.451 294.309 400.546 296.038 404.753 298.186C408.513 300.105 414.574 301.739 416.834 305.525C417.87 307.26 418.01 309.549 418.963 311.34C420.048 313.38 417.877 312.313 420.535 313.141C421.733 313.513 423.64 313.141 424.868 313.141ZM28.553 290.069C28.2148 294.78 25.5629 299.267 24.6398 303.899C24.2079 306.067 23.4751 308.199 22.9674 310.355C22.4805 312.424 20.7214 314.873 20.8995 316.92C27.3921 314.605 33.9685 314.023 40.7542 313.399C47.1857 312.807 53.9799 312.571 60.3574 312.568C66.8561 312.565 73.8048 311.93 80.4963 311.831C87.4942 311.728 94.5977 311.547 101.494 310.821C97.8881 308.148 93.3758 305.638 90.713 301.919C87.8182 297.877 86.3149 292.812 83.7677 288.547C78.6562 279.986 75.4066 269.365 72.7273 259.747C67.3179 240.333 61.2729 221.277 59.816 201.14C57.0434 202.561 54.8424 208.073 53.4542 210.818C51.6824 214.323 50.7545 218.123 49.6026 221.848C47.2307 229.521 45.5891 237.477 42.6847 245.077C37.1338 259.604 33.5659 275.258 28.553 290.069ZM380.989 176.918C382.19 185.601 384.707 194.396 384.804 203.184C384.825 205.117 384.498 207.264 384.901 209.17C385.331 211.206 386.729 213.005 387.537 214.939C388.818 218.009 392.064 224.303 388.934 226.904C388.871 224.435 386.613 221.3 385.476 219.141C383.761 215.888 381.509 212.914 379.651 209.742C375.762 203.102 371.403 196.605 366.391 190.751C361.509 185.05 355.882 179.992 350.705 174.563C349.149 172.932 336.671 157.231 336.175 157.45C340.046 172.387 346.625 185.382 355.63 197.888C360.044 204.019 365.343 208.053 370.717 213.247C375.193 217.572 383.627 222.197 382.08 229.284C389.076 228.611 396.026 227.536 403.086 227.536C401.925 218.595 401.036 209.795 398.963 201.001C396.61 191.015 395.016 180.731 393.025 170.656C390.993 160.371 387.547 150.414 385.403 140.149C383.349 130.319 381.586 120.507 380.08 110.567C378.837 116.075 379.296 122.124 378.854 127.743C378.403 133.484 378.447 139.119 378.597 144.894C378.875 155.62 380.017 166.217 380.989 176.918ZM411.304 125.779C411.343 121.188 412.233 116.658 412.507 112.078C412.591 110.673 413.99 101.085 412.685 100.585C411.613 102.925 411.362 105.92 410.388 108.376C409.415 110.829 408.113 113.166 407.179 115.636C405.155 120.988 404.457 127.043 404.239 132.732C403.746 145.601 403.492 158.441 404.356 171.31C404.726 176.826 405.011 182.351 404.909 187.878C404.798 193.96 403.867 199.238 404.997 205.27C406.116 211.243 406.819 217.191 407.192 223.251C407.453 227.504 407.558 227.203 411.613 226.904C414.541 226.688 417.497 226.919 420.429 226.785C419.058 210.207 418.834 193.596 416.645 177.083C415.528 168.658 415.498 160.111 414.11 151.718C413.42 147.549 412.263 143.463 411.598 139.289C410.885 134.807 411.236 130.295 411.304 125.779ZM114.759 115.347C122.566 116.023 130.87 118.359 138.872 116.817C137.553 116.282 134.101 115.545 135.655 113.435C137.234 111.289 139.896 114.01 141.471 113.729C142.443 113.556 144.589 109.493 145.188 108.651C146.547 106.739 146.711 106.406 149.154 105.916C151.521 105.442 152.058 105.956 152.358 103.6C152.702 100.892 151.766 97.8476 151.859 95.0782C152.058 89.1163 153.98 83.8881 155.769 78.2788C148.168 79.9334 140.737 81.8955 132.965 82.962C129.643 83.4179 124.475 84.4696 121.457 82.2098C120.672 81.6221 120.798 80.8287 120.155 80.1476C119.078 79.0049 117.081 77.8228 115.553 77.4972C106.153 75.4947 105.236 88.9044 109.947 93.9222C111.127 95.1797 112.768 95.8005 113.976 96.9527C115.589 98.4893 115.721 100.108 115.957 102.453C116.398 106.852 115.799 111.267 113.923 115.291L114.759 115.347ZM228.831 178.653C231.606 179.18 234.502 179.06 237.284 179.51C238.273 179.669 241.236 180.227 242.105 179.649C243.433 178.766 243.904 175.527 244.532 174.019C245.635 171.366 247.197 169.052 248.249 166.351C252.55 155.318 256.56 144.241 261.762 133.585C259.768 133.067 258.237 133.047 256.228 132.779C254.135 132.5 252.238 131.261 250.241 130.729C248.343 130.223 246.355 130.352 244.475 129.764C243.439 129.44 242.55 128.72 241.529 128.469C239.901 128.068 238.001 127.834 237.033 128.903C236.041 130 235.693 133.007 235.153 134.424C233.715 138.198 232.044 141.84 230.84 145.701C229.753 149.183 228.72 152.629 227.763 156.143C226.753 159.852 224.761 162.91 223.547 166.454C222.624 169.151 221.753 171.908 221.615 174.784C221.481 177.591 221.073 177.769 223.877 178.218C225.293 178.444 227.499 179.285 228.831 178.653ZM411.412 309.995C412.134 310.332 412.816 310.287 413.455 309.86C407.189 307.212 401.094 303.538 394.557 301.721C388.425 300.017 382.465 297.981 376.557 295.883C371.757 294.177 367.441 292.85 363.101 289.849C360.467 288.027 358.127 285.978 356.316 283.316C354.301 280.352 353.853 276.134 351.67 273.464C348.724 276.702 345.263 279.154 341.778 281.726C340.572 282.616 337.679 284.557 337.267 285.934C336.746 287.672 338.141 289.335 338.83 291.094C340.597 295.598 341.459 300.1 342.418 304.783C342.802 306.66 343.631 309.482 345.172 310.268C346.575 310.983 350.638 310.463 352.383 310.331C361.491 309.64 370.438 308.933 379.601 309.562C389.969 310.273 401.07 310.765 411.412 309.995ZM429.603 226.525C431.259 226.531 432.876 226.323 434.525 226.323C433.573 221.875 435.799 216.12 436.588 211.68C437.471 206.713 438.143 201.577 438.731 196.571C439.972 186.026 440.534 175.608 440.551 164.986C440.566 154.707 442.436 145.314 445.055 135.433C447.867 124.821 452.473 115.278 456.281 105.044C452.104 107.254 449.792 112.424 447.597 116.377C444.822 121.375 442.974 126.909 441.841 132.52C439.655 143.343 437.258 154.2 434.736 165.006C432.109 176.257 430.565 187.611 427.557 198.771C426.09 204.213 424.095 210.908 423.984 216.52C423.938 218.842 423.239 223.703 424.29 225.72C425.274 227.606 427.447 226.717 429.603 226.525ZM179.738 212.565C179.651 213.72 179.568 214.82 179.363 215.961C181.656 215.939 184.56 213.558 186.527 212.49C188.922 211.188 191.321 209.751 193.664 208.443C198.187 205.916 203.322 204.251 208.152 202.175C213.7 199.79 218.799 196.908 224.105 194.037C225.958 193.034 239.278 187.256 239.054 185.678C236.13 185.581 233.206 185.483 230.281 185.386C227.774 185.303 223.891 185.87 221.491 185.094C220.176 184.669 218.699 183.105 218.203 181.879C217.712 180.667 218.816 175.091 218.174 174.735C214.901 178.079 212.844 182.524 209.917 186.131C206.684 190.118 202.506 192.446 197.9 194.564C192.815 196.904 187.552 198.716 182.354 200.722C180.162 201.567 180.206 202.051 180.015 204.456C179.801 207.144 179.825 209.87 179.738 212.565ZM444 313.689C449.513 314.281 455.162 313.943 460.718 314.405C462.739 314.573 465.542 314.823 463.508 317.538C462.227 319.248 458.125 318.699 456.264 318.818C451.267 319.136 445.977 318.965 440.97 318.891C439.915 318.876 438.75 318.562 437.685 318.633C436.455 318.714 434.982 319.599 433.86 319.592C433.169 319.588 432.922 318.859 432.326 318.792C431.028 318.646 429.73 318.539 428.421 318.54C408.628 318.544 389.106 318.146 369.363 318.124C359.922 318.114 350.329 317.951 340.892 317.508C338.91 317.414 327.625 317.82 327.937 314.249C328.098 312.41 331.781 312.151 333.125 311.956C334.121 311.811 335.155 311.834 336.153 311.78C338.804 311.638 339.966 312.277 339.406 309.374C337.285 298.363 333.483 289.263 325.362 281.346C318.72 274.872 310.724 269 303.201 263.594C294.068 257.029 286.658 250.126 281.236 240.081C278.069 234.215 275.418 228.218 273.791 221.733C273.206 219.399 273.192 216.746 272.474 214.496C271.923 212.764 270.665 211.553 269.924 209.759C260.837 224.947 248.793 237.654 237.749 251.349C232.473 257.891 226.453 264.106 220.149 269.797C218.278 271.486 216.532 273.25 214.786 275.068C213.325 276.589 211.006 277.941 209.773 279.629C208.59 281.248 208.881 281.171 210.682 282.457C213.062 284.156 215.686 285.568 218.104 287.225C221.969 289.874 226.187 292.112 229.643 295.3C233.38 298.747 236.645 302.741 239.912 306.628C242.089 309.219 244.946 312.544 245.494 315.82C245.675 316.904 246.364 319.585 245.455 320.379C244.678 321.057 244.756 320.799 243.792 320.386C242.528 319.843 242.157 318.599 240.613 318.006C236.663 316.49 231.884 317.011 227.774 316.992C223.663 316.974 219.518 317.436 215.409 317.419C206.025 317.38 196.841 318.141 187.461 318.549C177.497 318.982 167.412 317.942 157.482 318.089C150.124 318.198 142.571 317.648 135.01 318.057C131.121 318.267 127.302 317.78 123.51 317.726C118.545 317.654 113.446 318.33 108.439 318.426C100.221 318.585 92.1026 318.584 83.834 318.782C66.0481 319.208 48.3584 319.648 30.5621 319.93C28.1883 319.967 25.5894 319.887 23.2435 320.154C20.7537 320.438 22.0391 320.968 20.3307 321.865C15.548 324.375 16.6525 315.069 16.7671 313.238C17.3819 303.429 19.8703 293.809 22.8608 284.497C25.6979 275.664 28.0012 266.42 30.4039 257.397C33.034 247.521 36.4607 238.05 39.5725 228.271C42.761 218.251 45.357 207.84 51.1481 198.957C52.4672 196.934 53.8303 194.757 55.9521 193.482C58.3307 192.052 58.433 192.887 58.4311 190.27C58.4297 187.806 58.5813 184.513 58.0001 182.161C57.4749 180.037 57.5559 181.296 56.3732 179.77C55.4108 178.529 54.4038 177.681 53.7133 176.173C49.4714 180.477 39.7615 178.206 35.6631 175.107C30.6469 171.313 26.8261 164.914 25.426 158.819C24.3016 153.924 25.6813 144.594 31.095 142.24C33.734 141.093 43.4274 140.226 43.8153 136.486C44.0152 134.556 40.6036 131.841 39.8164 130.181C38.3576 127.106 36.9566 123.016 36.5512 119.645C35.7593 113.066 38.7441 105.709 43.4989 101.264C52.2213 93.1113 67.5685 88.9272 78.7884 94.1C76.4173 85.0365 74.986 77.2176 76.1801 67.7896C77.2088 59.6674 81.9977 55.1231 88.5874 51.0774C99.8323 44.1727 115.124 41.4475 127.982 43.4552C130.904 43.9116 133.708 44.8903 136.413 45.669C140.343 46.8004 145.048 46.4236 148.759 48.2616C151.45 49.5939 153.493 52.248 155.856 54.0202C158.615 56.089 160.907 59.1768 162.824 62.0324C166.923 68.1389 165.322 79.4722 161.891 85.6019C161.155 86.9167 160.246 88.0234 159.029 88.9206C157.761 89.8543 155.829 90.1448 155.176 91.3558C153.503 94.4578 155.117 101.173 155.34 104.526C155.6 108.419 153.633 111.344 149.222 111.654C146.67 111.834 146.588 110.352 145.366 113.401C144.575 115.377 143.855 117.53 142.712 119.341C140.356 123.074 136.04 122.71 132.109 122.609C127.558 122.491 123.076 121.772 118.523 121.318C119.725 125.174 123.017 128.166 125.073 131.601C127.852 136.247 129.525 140.098 129.977 145.51C130.323 149.669 129.575 152.953 126.731 156.048C125.554 157.329 124.511 157.392 124.803 158.87C124.981 159.771 126.539 161.258 127.09 161.978C128.549 163.881 130.242 165.628 131.525 167.661C136.465 175.482 137.923 187.405 137.936 196.51C137.936 196.928 138.159 197.815 137.974 198.247C137.838 198.566 136.802 199.576 136.787 199.663C136.584 200.834 137.724 202.84 139.514 203.039C141.394 203.247 144.837 201.677 146.586 201.161C149.384 200.336 152.236 199.726 155.028 198.878C159.538 197.509 164.026 196.417 168.61 195.344C170.682 194.86 172.765 194.456 174.843 194.003C177.211 193.487 178.31 192.49 179.532 194.9C180.581 196.969 179.929 197.344 182.468 196.302C184.989 195.266 187.453 193.982 189.914 192.814C194.255 190.753 199.425 188.916 203.17 185.873C209.417 180.798 211.73 172.715 217.709 167.329C219.374 165.83 220.367 165.803 221.42 163.726C222.546 161.503 223.127 158.651 223.72 156.26C224.757 152.072 225.496 147.869 226.437 143.685C227.609 138.472 230.142 133.752 231.991 128.78C232.711 126.843 233.085 124.381 234.246 122.64C234.554 122.178 235.143 121.918 235.383 121.536C236.209 120.225 236.201 119.864 236.415 118.287C237.417 110.914 241.814 114.793 246.62 116.483C248.644 117.195 258.259 121.815 254.588 124.887C258.964 126.158 265.973 125.467 265.915 131.744C265.884 134.959 263.962 138.399 262.931 141.41C262.014 144.082 261.128 146.765 260.198 149.434C258.159 155.279 255.685 160.949 253.695 166.813C252.788 169.485 252.04 172.22 250.777 174.742C249.664 176.966 246.967 179.419 246.523 181.851C258.185 176.873 268.974 169.674 282.028 170.133C287.744 170.333 292.931 172.738 296.088 177.767C300.045 184.071 302.65 191.128 306.518 197.49C320.59 220.633 337.373 241.658 352.821 263.843C354.008 265.548 355.534 267.16 355.946 269.266C356.214 270.641 355.693 272.016 356.015 273.336C356.683 276.081 360.06 279.507 362.35 281.084C366.738 284.107 373.873 288.37 379.349 287.993C375.912 279.727 375.958 270.67 376.118 261.853C376.27 253.478 377.174 245.17 378.248 236.881C378.491 235.005 378.703 233.267 379.241 231.449C379.859 229.364 380.708 229.562 378.857 227.687C376.007 224.801 372.618 222.426 369.745 219.503C363.533 213.183 357.165 208.23 352.275 200.683C347.625 193.505 342.719 186.119 339.277 178.259C335.733 170.167 334.317 161.525 332.558 152.956C331.844 149.478 329.241 145.596 329.764 141.965C330.425 137.375 332.551 140.717 333.417 143.187C336.059 150.726 342.245 157.474 347.369 163.537C352.905 170.087 359.675 175.568 365.454 181.927C371.746 188.854 376.056 196.814 381.651 204.208C381.651 195.032 378.521 185.688 377.24 176.611C376.113 168.621 375.759 160.607 375.047 152.583C373.43 134.355 374.827 115.591 377.097 97.4935C378.176 88.8988 377.564 80.5064 377.597 71.8822C377.608 69.1375 376.472 62.8116 377.919 60.3759C380.69 55.7108 382.307 65.9118 382.447 67.4327C383.285 76.4929 381.782 85.4521 382.55 94.4735C383.352 103.894 385.093 113.051 386.575 122.363C388.18 132.445 390.793 142.3 393.295 152.189C395.922 162.572 398.131 173.172 401.051 183.472C401.839 180.234 400.734 176.257 400.515 172.96C400.204 168.241 399.595 163.521 399.542 158.79C399.458 151.25 399.399 143.57 399.826 136.065C400.246 128.667 400.119 120.916 402.386 113.789C403.462 110.406 405.04 107.106 406.584 103.919C408.489 99.9903 409.163 96.1807 410.218 92.0018C411.121 88.4229 412.444 84.9384 413.046 81.2879C413.42 79.0177 414.464 72.3159 417.062 77.3934C418.57 80.3405 417.918 84.7094 417.96 87.8755C418.014 91.9345 417.393 95.8811 417.298 99.923C417.113 107.853 416.98 115.774 416.389 123.691C415.769 131.997 416.31 139.441 417.889 147.626C419.617 156.584 420.123 165.562 421.019 174.631C421.481 179.313 422.259 183.969 422.635 188.658C422.834 191.141 421.814 198.261 423.592 200.03C423.764 195.729 424.995 191.424 425.929 187.234C427.035 182.269 427.482 177.05 428.297 172.014C429.617 163.855 432.178 156.064 433.873 147.997C437.366 131.367 440.268 109.994 454.907 99.1088C456.823 97.6845 458.928 96.6333 460.998 95.4612C462.17 94.7976 463.912 93.081 465.253 92.7814C466.717 92.4544 467.328 92.7084 467.921 94.408C468.749 96.7774 467.235 97.8841 465.823 99.605C460.933 105.56 458.845 113.193 455.826 120.177C448.913 136.169 445.854 153.036 445.819 170.322C445.8 179.372 445.177 188.1 444.212 197.094C443.174 206.774 441.808 217.011 438.869 226.323C441.817 226.984 445.015 225.998 445.814 229.427C446.011 230.269 445.656 231.265 445.873 232.361C446.084 233.427 446.593 234.486 446.893 235.534C447.515 237.702 447.844 239.84 448.146 242.066C449.314 250.667 451.32 258.848 451.534 267.57C451.731 275.631 450.153 283.799 448.7 291.706C447.236 299.669 443.038 306.457 439.732 313.659C441.155 313.659 442.577 313.674 444 313.689Z" fill="black"/>
<path fill-rule="evenodd" clip-rule="evenodd" d="M256.915 295.383C255.347 295.826 247.779 296.663 247.78 299.04C247.781 300.465 255.339 300.437 256.677 300.592C256.757 298.856 256.836 297.119 256.915 295.383ZM273.62 311.781C277.981 312.611 283.901 311.444 286.69 307.597C287.993 305.799 288.61 303.065 289.035 300.919C289.44 298.874 290.69 293.772 289.839 291.856C288.795 289.502 278.774 291.962 275.856 292.232C270.765 292.702 265.501 292.758 260.406 292.425C260.406 297.689 260.137 302.819 263.231 307.35C265.463 310.619 269.655 311.39 273.62 311.781ZM272.744 318.283C268.005 316.547 263.03 317.675 259.944 312.585C259.161 311.293 258.502 309.904 258.028 308.47C257.797 307.841 257.617 307.198 257.489 306.538C257.73 305.119 257.21 304.719 255.931 305.338C253.419 304.849 250.665 306.574 248.019 306.066C241.602 304.833 242.768 295.634 247.074 292.45C247.925 291.821 248.774 291.646 249.748 291.335C251.895 290.651 253.057 291.415 255.02 291.221C256.606 291.064 257.043 289.399 258.748 288.666C259.864 288.186 261.414 288.223 262.587 288.175C268.73 287.922 274.891 287.925 281.072 287.524C283.955 287.337 287.068 287.794 289.892 287.301C291.215 287.07 291.025 286.189 292.277 286.962C293.573 287.762 293.014 290.72 292.948 291.9C292.57 298.722 292.164 306.038 288.512 312.002C285.171 317.458 278.597 318.017 272.744 318.283Z" fill="black"/>
<path fill-rule="evenodd" clip-rule="evenodd" d="M22.4818 320.162C24.0064 320.146 25.5306 320.13 27.05 320.114C25.5235 320.131 24.0026 320.146 22.4818 320.162Z" fill="black"/>
<path fill-rule="evenodd" clip-rule="evenodd" d="M445.828 174.716C445.825 173.25 445.822 171.785 445.819 170.322C445.821 171.789 445.825 173.252 445.828 174.716Z" fill="black"/>
<path fill-rule="evenodd" clip-rule="evenodd" d="M58.0047 180.734C58 182.162 57.9953 183.589 57.9905 185.013C57.9948 183.585 57.9995 182.159 58.0047 180.734Z" fill="black"/>
<path fill-rule="evenodd" clip-rule="evenodd" d="M184.734 318.544C185.947 318.546 187.16 318.547 188.368 318.551C187.153 318.549 185.944 318.547 184.734 318.544Z" fill="black"/>
<path fill-rule="evenodd" clip-rule="evenodd" d="M111.086 318.253C112.299 318.257 113.511 318.26 114.719 318.265C113.504 318.262 112.295 318.257 111.086 318.253Z" fill="black"/>
<path fill-rule="evenodd" clip-rule="evenodd" d="M376.278 258.965C376.225 259.928 376.171 260.891 376.118 261.853C376.171 260.889 376.225 259.927 376.278 258.965Z" fill="black"/>
<path fill-rule="evenodd" clip-rule="evenodd" d="M444 313.689C443.063 313.679 442.126 313.669 441.188 313.659C442.13 313.266 443.067 313.284 444 313.689Z" fill="black"/>
<path fill-rule="evenodd" clip-rule="evenodd" d="M360.78 317.955C361.453 317.945 362.126 317.934 362.792 317.923C362.118 317.933 361.449 317.944 360.78 317.955Z" fill="black"/>
<path fill-rule="evenodd" clip-rule="evenodd" d="M445.463 186.606C445.48 185.878 445.496 185.15 445.513 184.424C445.496 185.153 445.48 185.88 445.463 186.606Z" fill="black"/>
<path fill-rule="evenodd" clip-rule="evenodd" d="M382.55 94.4736C382.495 93.7224 382.439 92.9716 382.383 92.2223C382.439 92.974 382.495 93.7238 382.55 94.4736Z" fill="black"/>
<path fill-rule="evenodd" clip-rule="evenodd" d="M445.795 177.585C445.804 176.831 445.813 176.079 445.822 175.328C445.813 176.082 445.804 176.833 445.795 177.585Z" fill="black"/>
<path fill-rule="evenodd" clip-rule="evenodd" d="M234.231 317.021C234.829 317.03 235.427 317.039 236.02 317.046C235.421 317.037 234.826 317.029 234.231 317.021Z" fill="black"/>
<path fill-rule="evenodd" clip-rule="evenodd" d="M388.306 318.249C388.891 318.26 389.476 318.272 390.055 318.285C389.468 318.273 388.887 318.261 388.306 318.249Z" fill="black"/>
<path fill-rule="evenodd" clip-rule="evenodd" d="M451.467 265.303C451.425 264.642 451.383 263.982 451.341 263.323C451.383 263.984 451.425 264.643 451.467 265.303Z" fill="black"/>
<path fill-rule="evenodd" clip-rule="evenodd" d="M440.97 318.891C441.446 318.888 441.922 318.885 442.392 318.884C441.915 318.888 441.442 318.89 440.97 318.891Z" fill="black"/>
<path fill-rule="evenodd" clip-rule="evenodd" d="M376.121 318.279C376.592 318.268 377.063 318.256 377.53 318.245C377.057 318.257 376.588 318.268 376.121 318.279Z" fill="black"/>
<path fill-rule="evenodd" clip-rule="evenodd" d="M270.175 317.919C270.694 317.916 271.212 317.913 271.726 317.91C271.206 317.912 270.69 317.916 270.175 317.919Z" fill="black"/>
<path fill-rule="evenodd" clip-rule="evenodd" d="M150.531 317.917C151.024 317.92 151.518 317.924 152.005 317.928C151.51 317.925 151.021 317.921 150.531 317.917Z" fill="black"/>
<path fill-rule="evenodd" clip-rule="evenodd" d="M121.426 317.997C121.929 317.969 122.431 317.94 122.929 317.913C122.425 317.941 121.925 317.969 121.426 317.997Z" fill="black"/>
<path fill-rule="evenodd" clip-rule="evenodd" d="M260.771 126.225C260.023 126.16 259.274 126.096 258.526 126.031C259.275 126.083 260.068 125.64 260.771 126.225Z" fill="black"/>
<path fill-rule="evenodd" clip-rule="evenodd" d="M451.538 313.973C450.8 313.899 450.062 313.824 449.324 313.749C450.062 313.824 450.8 313.899 451.538 313.973Z" fill="black"/>
<path fill-rule="evenodd" clip-rule="evenodd" d="M400.067 130.771C400.018 131.418 399.968 132.066 399.918 132.711C399.968 132.063 400.018 131.417 400.067 130.771Z" fill="black"/>
<path fill-rule="evenodd" clip-rule="evenodd" d="M445.981 157.745C446.031 157.132 446.081 156.519 446.131 155.908C446.081 156.522 446.03 157.133 445.981 157.745Z" fill="black"/>
<path fill-rule="evenodd" clip-rule="evenodd" d="M399.773 140.807C399.72 141.453 399.667 142.099 399.614 142.742C399.667 142.096 399.72 141.451 399.773 140.807Z" fill="black"/>
<path fill-rule="evenodd" clip-rule="evenodd" d="M445.668 182.504C445.663 181.879 445.659 181.255 445.654 180.633C446.057 181.255 446.041 181.878 445.668 182.504Z" fill="black"/>
<path fill-rule="evenodd" clip-rule="evenodd" d="M376.288 272.144C376.283 272.77 376.277 273.396 376.271 274.019C375.858 273.388 375.94 272.765 376.288 272.144Z" fill="black"/>
<path fill-rule="evenodd" clip-rule="evenodd" d="M423.321 199.76C423.249 199.127 423.177 198.493 423.105 197.862C423.177 198.496 423.249 199.128 423.321 199.76Z" fill="black"/>
<path fill-rule="evenodd" clip-rule="evenodd" d="M33.8693 141.639C33.38 142.286 32.7136 141.843 32.132 141.921C32.7117 141.827 33.2905 141.733 33.8693 141.639Z" fill="black"/>
<path fill-rule="evenodd" clip-rule="evenodd" d="M275.797 287.973C275.179 287.974 274.561 287.974 273.943 287.975C274.561 287.974 275.179 287.973 275.797 287.973Z" fill="black"/>
<path fill-rule="evenodd" clip-rule="evenodd" d="M374.548 144.297C374.606 144.823 374.663 145.349 374.721 145.874C374.663 145.347 374.606 144.822 374.548 144.297Z" fill="black"/>
<path fill-rule="evenodd" clip-rule="evenodd" d="M69.08 92.0473C68.4586 92.0597 67.8372 92.072 67.2158 92.0843C67.8306 91.7222 68.4501 91.6175 69.08 92.0473Z" fill="black"/>
<path fill-rule="evenodd" clip-rule="evenodd" d="M399.758 149.907C399.718 150.459 399.678 151.01 399.638 151.56C399.678 151.008 399.718 150.458 399.758 149.907Z" fill="black"/>
<path fill-rule="evenodd" clip-rule="evenodd" d="M382.717 82.1869C382.765 81.684 382.813 81.1812 382.861 80.6812C382.813 81.185 382.765 81.6859 382.717 82.1869Z" fill="black"/>
<path fill-rule="evenodd" clip-rule="evenodd" d="M377.834 80.6117C377.785 81.1572 377.737 81.7032 377.688 82.2469C377.737 81.7004 377.785 81.1558 377.834 80.6117Z" fill="black"/>
<path fill-rule="evenodd" clip-rule="evenodd" d="M107.914 44.1682C107.281 44.245 106.649 44.3218 106.017 44.3981C106.65 44.3213 107.281 44.245 107.914 44.1682Z" fill="black"/>
<path fill-rule="evenodd" clip-rule="evenodd" d="M62.2442 92.4817C61.5954 92.548 60.9465 92.6144 60.2981 92.6808C60.947 92.6144 61.5958 92.548 62.2442 92.4817Z" fill="black"/>
<path fill-rule="evenodd" clip-rule="evenodd" d="M417.816 94.0808C417.856 93.5732 417.895 93.0651 417.935 92.5603C417.895 93.0684 417.856 93.5746 417.816 94.0808Z" fill="black"/>
<path fill-rule="evenodd" clip-rule="evenodd" d="M40.947 177.856C41.3207 177.861 41.6939 177.867 42.062 177.872C41.6868 177.867 41.3169 177.861 40.947 177.856Z" fill="black"/>
<path fill-rule="evenodd" clip-rule="evenodd" d="M377.853 240.506C377.816 241.068 377.778 241.63 377.741 242.191C377.779 241.629 377.816 241.067 377.853 240.506Z" fill="black"/>
<path fill-rule="evenodd" clip-rule="evenodd" d="M415.974 131.116C415.958 130.574 415.944 130.033 415.928 129.493C415.944 130.035 415.959 130.575 415.974 131.116Z" fill="black"/>
<path fill-rule="evenodd" clip-rule="evenodd" d="M123.831 42.8864C123.254 42.8864 122.678 42.8869 122.103 42.8869C122.679 42.4907 123.255 42.5006 123.831 42.8864Z" fill="black"/>
<path fill-rule="evenodd" clip-rule="evenodd" d="M277.719 170.392C277.088 170.408 276.457 170.425 275.826 170.441C276.446 170.002 277.078 169.991 277.719 170.392Z" fill="black"/>
<path fill-rule="evenodd" clip-rule="evenodd" d="M332.893 316.999C333.267 317.007 333.641 317.015 334.011 317.024C333.635 317.017 333.263 317.008 332.893 316.999Z" fill="black"/>
<path fill-rule="evenodd" clip-rule="evenodd" d="M346.986 317.657C347.36 317.644 347.734 317.631 348.102 317.618C347.727 317.631 347.357 317.644 346.986 317.657Z" fill="black"/>
<path fill-rule="evenodd" clip-rule="evenodd" d="M126.418 317.917C126.808 317.927 127.197 317.937 127.582 317.947C127.191 317.937 126.804 317.927 126.418 317.917Z" fill="black"/>
<path fill-rule="evenodd" clip-rule="evenodd" d="M451.143 259.035C451.088 258.5 451.032 257.964 450.976 257.43C451.032 257.967 451.088 258.501 451.143 259.035Z" fill="black"/>
<path fill-rule="evenodd" clip-rule="evenodd" d="M400.235 168.747C400.28 169.258 400.324 169.768 400.367 170.275C400.323 169.764 400.279 169.256 400.235 168.747Z" fill="black"/>
<path fill-rule="evenodd" clip-rule="evenodd" d="M419.826 159.983C419.766 159.442 419.705 158.901 419.645 158.362C419.706 158.903 419.766 159.443 419.826 159.983Z" fill="black"/>
<path fill-rule="evenodd" clip-rule="evenodd" d="M129.58 318.24C129.973 318.234 130.367 318.228 130.756 318.223C130.361 318.229 129.97 318.234 129.58 318.24Z" fill="black"/>
<path fill-rule="evenodd" clip-rule="evenodd" d="M272.744 318.283C273.126 318.265 273.508 318.248 273.886 318.231C273.503 318.249 273.123 318.266 272.744 318.283Z" fill="black"/>
<path fill-rule="evenodd" clip-rule="evenodd" d="M416.629 120.461C416.611 119.912 416.594 119.364 416.577 118.816C416.595 119.365 416.612 119.913 416.629 120.461Z" fill="black"/>
<path fill-rule="evenodd" clip-rule="evenodd" d="M92.3037 318.598C92.6874 318.596 93.0705 318.592 93.449 318.59C93.0634 318.593 92.684 318.596 92.3037 318.598Z" fill="black"/>
<path fill-rule="evenodd" clip-rule="evenodd" d="M416.468 318.593C416.862 318.597 417.257 318.601 417.646 318.605C417.25 318.602 416.859 318.597 416.468 318.593Z" fill="black"/>
<path fill-rule="evenodd" clip-rule="evenodd" d="M424.982 318.546C425.363 318.573 425.743 318.601 426.119 318.627C425.737 318.6 425.36 318.573 424.982 318.546Z" fill="black"/>
<path fill-rule="evenodd" clip-rule="evenodd" d="M428.421 318.539C428.808 318.551 429.196 318.563 429.579 318.571C429.19 318.559 428.805 318.549 428.421 318.539Z" fill="black"/>
<path fill-rule="evenodd" clip-rule="evenodd" d="M446.076 162.157C446.05 161.618 446.025 161.078 446 160.54C446.025 161.08 446.05 161.619 446.076 162.157Z" fill="black"/>
<path fill-rule="evenodd" clip-rule="evenodd" d="M185.893 311.469C187.072 311.408 188.252 311.347 189.431 311.285C188.252 311.347 187.072 311.408 185.893 311.469Z" fill="black"/>
<path fill-rule="evenodd" clip-rule="evenodd" d="M114.759 115.347C115.782 115.436 116.806 115.525 117.828 115.613C116.805 115.524 115.782 115.435 114.759 115.347Z" fill="black"/>
<path fill-rule="evenodd" clip-rule="evenodd" d="M403.745 159.876C403.776 160.853 403.809 161.831 403.841 162.805C403.809 161.827 403.776 160.852 403.745 159.876Z" fill="black"/>
<path fill-rule="evenodd" clip-rule="evenodd" d="M424.867 313.141C425.936 313.206 427.004 313.27 428.073 313.335C426.997 313.384 425.906 313.69 424.867 313.141Z" fill="black"/>
<path fill-rule="evenodd" clip-rule="evenodd" d="M418.545 197.539C418.553 196.607 418.561 195.675 418.568 194.745C418.56 195.677 418.553 196.608 418.545 197.539Z" fill="black"/>
<path fill-rule="evenodd" clip-rule="evenodd" d="M415.81 226.83C416.747 226.842 417.685 226.855 418.622 226.868C417.684 226.855 416.747 226.842 415.81 226.83Z" fill="black"/>
<path fill-rule="evenodd" clip-rule="evenodd" d="M179.806 210.44C179.782 211.151 179.759 211.861 179.737 212.568C179.761 211.857 179.783 211.149 179.806 210.44Z" fill="black"/>
<path fill-rule="evenodd" clip-rule="evenodd" d="M431.413 180.356C431.374 181.063 431.336 181.77 431.299 182.473C431.338 181.766 431.375 181.061 431.413 180.356Z" fill="black"/>
<path fill-rule="evenodd" clip-rule="evenodd" d="M411.412 309.995C412.094 309.948 412.776 309.902 413.456 309.858C412.943 310.269 412.428 310.303 411.412 309.995Z" fill="black"/>
<path fill-rule="evenodd" clip-rule="evenodd" d="M406.847 217.573C406.894 218.335 406.941 219.098 406.987 219.857C406.941 219.095 406.894 218.334 406.847 217.573Z" fill="black"/>
<path fill-rule="evenodd" clip-rule="evenodd" d="M151.836 97.2808C151.843 96.5447 151.851 95.8087 151.858 95.0754C151.851 95.8124 151.844 96.5466 151.836 97.2808Z" fill="black"/>
<path fill-rule="evenodd" clip-rule="evenodd" d="M407.673 226.984L410.215 226.929C409.376 227.334 408.529 227.349 407.673 226.984Z" fill="black"/>
<path fill-rule="evenodd" clip-rule="evenodd" d="M431.125 232.416C430.525 232.421 429.926 232.426 429.331 232.432C429.932 232.427 430.528 232.421 431.125 232.416Z" fill="black"/>
<path fill-rule="evenodd" clip-rule="evenodd" d="M211.609 310.288C212.439 310.298 213.269 310.309 214.099 310.32C213.263 310.739 212.432 310.798 211.609 310.288Z" fill="black"/>
<path fill-rule="evenodd" clip-rule="evenodd" d="M55.2961 312.734C56.1383 312.659 56.9809 312.583 57.823 312.508C56.9809 312.583 56.1383 312.659 55.2961 312.734Z" fill="black"/>
<path fill-rule="evenodd" clip-rule="evenodd" d="M404.037 166.153C404.078 166.918 404.119 167.683 404.161 168.445C404.119 167.679 404.078 166.916 404.037 166.153Z" fill="black"/>
<path fill-rule="evenodd" clip-rule="evenodd" d="M135.23 117.143C135.94 116.792 136.656 116.734 137.379 117.105C136.662 117.117 135.947 117.13 135.23 117.143Z" fill="black"/>
<path fill-rule="evenodd" clip-rule="evenodd" d="M380.813 174.986C380.872 175.631 380.931 176.277 380.989 176.92C380.93 176.274 380.872 175.63 380.813 174.986Z" fill="black"/>
<path fill-rule="evenodd" clip-rule="evenodd" d="M440.788 159.93C440.423 159.298 440.436 158.67 440.806 158.048C440.8 158.676 440.794 159.303 440.788 159.93Z" fill="black"/>
<path fill-rule="evenodd" clip-rule="evenodd" d="M404.153 138.014C404.153 138.652 404.154 139.291 404.154 139.928C404.153 139.288 404.153 138.651 404.153 138.014Z" fill="black"/>
<path fill-rule="evenodd" clip-rule="evenodd" d="M429.603 226.525C430.334 226.301 431.065 225.984 431.793 226.533C431.063 226.53 430.333 226.527 429.603 226.525Z" fill="black"/>
<path fill-rule="evenodd" clip-rule="evenodd" d="M193.448 311.181C194.183 311.112 194.918 311.044 195.653 310.975C194.918 311.044 194.183 311.112 193.448 311.181Z" fill="black"/>
<path fill-rule="evenodd" clip-rule="evenodd" d="M92.6372 311.182C93.3107 310.886 93.9828 310.73 94.6464 311.205C93.9762 311.197 93.3069 311.19 92.6372 311.182Z" fill="black"/>
<path fill-rule="evenodd" clip-rule="evenodd" d="M230.4 310.232C231.12 309.917 231.839 309.744 232.549 310.254C231.832 310.246 231.116 310.239 230.4 310.232Z" fill="black"/>
<path fill-rule="evenodd" clip-rule="evenodd" d="M70.0804 216.992C70.1344 217.643 70.1889 218.293 70.2424 218.942C70.188 218.291 70.134 217.642 70.0804 216.992Z" fill="black"/>
<path fill-rule="evenodd" clip-rule="evenodd" d="M237.284 179.51C237.993 179.252 238.699 179.117 239.395 179.548C238.691 179.535 237.988 179.522 237.284 179.51Z" fill="black"/>
<path fill-rule="evenodd" clip-rule="evenodd" d="M404.026 198.88C404.065 199.516 404.105 200.152 404.143 200.787C404.104 200.15 404.065 199.515 404.026 198.88Z" fill="black"/>
<path fill-rule="evenodd" clip-rule="evenodd" d="M69.6226 141.488C69.5638 142 69.5051 142.513 69.4468 143.022C69.5056 142.509 69.5638 141.998 69.6226 141.488Z" fill="black"/>
<path fill-rule="evenodd" clip-rule="evenodd" d="M28.553 290.069C28.5165 290.568 28.4805 291.067 28.4445 291.563C28.4819 291.063 28.5175 290.566 28.553 290.069Z" fill="black"/>
<path fill-rule="evenodd" clip-rule="evenodd" d="M418.859 202.246C418.819 201.73 418.779 201.215 418.74 200.701C418.779 201.218 418.819 201.732 418.859 202.246Z" fill="black"/>
<path fill-rule="evenodd" clip-rule="evenodd" d="M367.257 309.269C367.888 309.273 368.52 309.278 369.15 309.282C368.519 309.278 367.888 309.273 367.257 309.269Z" fill="black"/>
<path fill-rule="evenodd" clip-rule="evenodd" d="M179.567 214.828C179.685 215.203 179.803 215.579 179.921 215.955C179.133 216.146 179.015 215.77 179.567 214.828Z" fill="black"/>
<path fill-rule="evenodd" clip-rule="evenodd" d="M226.908 178.661C227.549 178.658 228.19 178.656 228.831 178.653C228.191 178.957 227.55 179.166 226.908 178.661Z" fill="black"/>
<path fill-rule="evenodd" clip-rule="evenodd" d="M70.4399 220.073C70.4617 220.642 70.4835 221.211 70.5043 221.778C70.482 221.208 70.4607 220.641 70.4399 220.073Z" fill="black"/>
<path fill-rule="evenodd" clip-rule="evenodd" d="M77.2242 311.804C77.8433 311.804 78.4618 311.803 79.0809 311.803C78.4614 311.803 77.8433 311.804 77.2242 311.804Z" fill="black"/>
<path fill-rule="evenodd" clip-rule="evenodd" d="M382.37 226.07C382.393 226.593 382.416 227.117 382.439 227.638C382.417 227.113 382.393 226.592 382.37 226.07Z" fill="black"/>
<path fill-rule="evenodd" clip-rule="evenodd" d="M64.0829 312.443C64.6915 312.038 65.3015 312.073 65.9125 312.436C65.3025 312.438 64.6924 312.441 64.0829 312.443Z" fill="black"/>
<path fill-rule="evenodd" clip-rule="evenodd" d="M80.1096 134.171C80.1422 134.706 80.1754 135.241 80.2095 135.772C80.1768 135.236 80.1432 134.704 80.1096 134.171Z" fill="black"/>
<path fill-rule="evenodd" clip-rule="evenodd" d="M60.9163 312.498C61.5491 312.5 62.1819 312.503 62.8142 312.506C62.1795 312.938 61.5472 312.958 60.9163 312.498Z" fill="black"/>
<path fill-rule="evenodd" clip-rule="evenodd" d="M411.304 125.779C411.309 125.236 411.314 124.693 411.319 124.151C411.314 124.695 411.309 125.236 411.304 125.779Z" fill="black"/>
<path fill-rule="evenodd" clip-rule="evenodd" d="M120.802 116.28C121.407 116.359 122.012 116.439 122.617 116.517C122.012 116.438 121.407 116.359 120.802 116.28Z" fill="black"/>
<path fill-rule="evenodd" clip-rule="evenodd" d="M67.3876 163.154C67.3957 163.661 67.4037 164.169 67.4132 164.674C67.4052 164.166 67.3966 163.66 67.3876 163.154Z" fill="black"/>
<path fill-rule="evenodd" clip-rule="evenodd" d="M415.379 163.082C415.346 162.565 415.313 162.048 415.28 161.534C415.313 162.052 415.347 162.567 415.379 163.082Z" fill="black"/>
<path fill-rule="evenodd" clip-rule="evenodd" d="M274.202 311.892C274.949 311.96 275.696 312.028 276.443 312.095C275.696 312.027 274.949 311.96 274.202 311.892Z" fill="black"/>
<path fill-rule="evenodd" clip-rule="evenodd" d="M271.707 292.544C271.303 292.55 270.9 292.556 270.5 292.565C270.905 292.56 271.306 292.552 271.707 292.544Z" fill="black"/>
<path fill-rule="evenodd" clip-rule="evenodd" d="M271.741 311.596C272.367 311.658 272.994 311.72 273.621 311.782C272.994 311.719 272.367 311.658 271.741 311.596Z" fill="black"/>
<path fill-rule="evenodd" clip-rule="evenodd" d="M159.006 269.382C159.822 273.99 152.664 278.498 152.097 271.946C151.889 269.55 153.49 267.866 155.283 266.401C157.827 264.323 159.249 266.313 159.006 269.382Z" fill="black"/>
<path fill-rule="evenodd" clip-rule="evenodd" d="M80.1124 213.152C81.7985 213.843 94.6808 218.043 87.9894 220.156C86.218 220.716 83.5405 220.799 82.005 219.814C80.1579 218.628 78.2946 215.129 80.1124 213.152Z" fill="black"/>
<path fill-rule="evenodd" clip-rule="evenodd" d="M83.2826 150.739C87.6551 150.231 91.6839 157.418 86.293 157.185C82.3689 157.015 77.0917 150.739 83.2826 150.739Z" fill="black"/>
<path fill-rule="evenodd" clip-rule="evenodd" d="M98.9244 168.361C102.576 171.548 95.8079 178.683 93.121 175.922C91.7489 174.511 93.0144 171.473 94.1469 170.292C95.3092 169.081 97.3771 168.854 98.9244 168.361Z" fill="black"/>
<path fill-rule="evenodd" clip-rule="evenodd" d="M109.794 251.004C107.639 251.347 98.1596 254.446 100.137 248.816C100.891 246.669 102.994 247.306 104.916 247.405C108.014 247.563 109.794 247.415 109.794 251.004Z" fill="black"/>
<path fill-rule="evenodd" clip-rule="evenodd" d="M103.55 265.506C106.777 267.233 102.06 276.901 99.3856 274.844C95.6746 271.99 100.75 266.374 103.55 265.506Z" fill="black"/>
<path fill-rule="evenodd" clip-rule="evenodd" d="M117.624 257.734C119.193 257.093 126.59 264.213 123.774 266.193C122.331 267.208 119.596 265.468 118.726 264.419C117.095 262.451 116.947 260.023 117.624 257.734Z" fill="black"/>
<path fill-rule="evenodd" clip-rule="evenodd" d="M74.9482 199.539C76.5519 199.803 79.3207 199.886 79.4245 202.141C79.5154 204.123 77.0321 204.765 75.284 204.921C73.47 205.082 71.0686 204.57 71.0341 202.288C70.9976 199.825 74.8913 199.974 74.9482 199.539Z" fill="black"/>
<path fill-rule="evenodd" clip-rule="evenodd" d="M114.496 297.673C116.204 298.711 124.17 302.447 120.755 305.145C119.477 306.155 115.603 304.069 114.731 303.009C113.691 301.744 112.674 298.779 114.496 297.673Z" fill="black"/>
<path fill-rule="evenodd" clip-rule="evenodd" d="M136.642 270.566C136.395 266.442 143.347 264.801 141.906 270.654C141.499 272.304 141.106 274.809 139.067 274.905C136.657 275.018 136.57 272.165 136.642 270.566Z" fill="black"/>
<path fill-rule="evenodd" clip-rule="evenodd" d="M115.166 198.86C115.215 201.988 109.225 204.747 109.179 199.789C109.137 195.358 115.39 194.061 115.166 198.86Z" fill="black"/>
<path fill-rule="evenodd" clip-rule="evenodd" d="M111.211 182.569C112.687 183.045 114.648 183.29 114.778 185.166C114.916 187.152 113.073 188.036 111.414 187.924C110.054 187.833 108.041 186.825 107.793 185.349C107.431 183.181 109.545 183.039 111.211 182.569Z" fill="black"/>
<path fill-rule="evenodd" clip-rule="evenodd" d="M83.7677 239.838C83.7426 237.257 88.9119 234.155 89.8639 237.15C90.1684 238.109 87.732 242.406 86.9217 242.728C84.7775 243.579 84.4782 241.594 83.7677 239.838Z" fill="black"/>
<path fill-rule="evenodd" clip-rule="evenodd" d="M126.127 282.799C124.38 284.364 119.14 288.759 119.532 282.859C119.782 279.09 126.588 279.287 126.127 282.799Z" fill="black"/>
<path fill-rule="evenodd" clip-rule="evenodd" d="M211.496 299.662C212.069 297.181 220.266 301.484 217.531 304.618C216.613 305.67 214.212 304.718 213.289 304.095C211.462 302.861 211.422 301.722 211.496 299.662Z" fill="black"/>
<path fill-rule="evenodd" clip-rule="evenodd" d="M165.821 246.56C166.141 245.455 166.496 243.499 167.551 242.793C169.458 241.517 171.119 243.443 171.12 245.473C171.12 249.26 166.813 250.454 165.821 246.56Z" fill="black"/>
<path fill-rule="evenodd" clip-rule="evenodd" d="M145.504 290.837C147.632 291.325 152.371 296.502 149.623 298.614C146.978 300.647 143.46 292.383 145.504 290.837Z" fill="black"/>
<path fill-rule="evenodd" clip-rule="evenodd" d="M147.53 251.646C150.267 251.864 154.028 256.299 149.775 257.004C146.447 257.556 142.578 252.732 147.53 251.646Z" fill="black"/>
<path fill-rule="evenodd" clip-rule="evenodd" d="M172.306 272.054C172.992 269.74 179.779 272.219 179.398 274.766C179.195 276.12 176.42 276.438 174.961 276.08C172.814 275.553 172.256 274.143 172.306 272.054Z" fill="black"/>
<path fill-rule="evenodd" clip-rule="evenodd" d="M92.301 142.85C92.3503 139.859 98.0931 138.64 98.5136 141.654C98.894 144.377 92.229 147.274 92.301 142.85Z" fill="black"/>
<path fill-rule="evenodd" clip-rule="evenodd" d="M170.408 302.87C170.822 301.366 171.001 299.556 172.878 299.358C175.027 299.131 174.964 300.78 174.711 302.489C174.024 307.139 171.398 307.371 170.408 302.87Z" fill="black"/>
<path fill-rule="evenodd" clip-rule="evenodd" d="M79.7192 178.432C76.7254 179.108 71.2421 173.338 74.5936 172.1C76.9551 171.226 79.7192 176.691 79.7192 178.432Z" fill="black"/>
<path fill-rule="evenodd" clip-rule="evenodd" d="M117.904 223.251C116.381 223.969 116.03 224.405 114.859 223.227C113.84 222.201 113.885 219.342 114.76 218.274C118.11 214.187 118.032 221.597 117.904 223.251Z" fill="black"/>
<path fill-rule="evenodd" clip-rule="evenodd" d="M130.335 214.961C131.925 215.164 136.646 219.645 134.188 221.427C131.175 223.609 129.47 216.773 130.335 214.961Z" fill="black"/>
<path fill-rule="evenodd" clip-rule="evenodd" d="M164.716 216.142C163.56 220.592 160.677 217.598 160.841 214.23C161.103 208.835 164.091 213.533 164.716 216.142Z" fill="black"/>
<path fill-rule="evenodd" clip-rule="evenodd" d="M182.245 287.627C184.2 288.436 186.852 295.911 184.061 296.312C180.926 296.762 181.97 289.183 182.245 287.627Z" fill="black"/>
<path fill-rule="evenodd" clip-rule="evenodd" d="M157.841 283.427C160.077 282.672 160.897 287.392 159.597 288.269C156.738 290.198 157.341 284.541 157.841 283.427Z" fill="black"/>
<path fill-rule="evenodd" clip-rule="evenodd" d="M136.642 270.566C136.613 271.192 136.585 271.819 136.556 272.442C136.584 271.814 136.612 271.19 136.642 270.566Z" fill="black"/>
<path fill-rule="evenodd" clip-rule="evenodd" d="M211.496 299.662C211.473 300.304 211.45 300.947 211.425 301.586C211.448 300.942 211.472 300.302 211.496 299.662Z" fill="black"/>
<path fill-rule="evenodd" clip-rule="evenodd" d="M172.306 272.054C172.293 272.599 172.28 273.144 172.266 273.685C172.278 273.139 172.292 272.596 172.306 272.054Z" fill="black"/>
<path fill-rule="evenodd" clip-rule="evenodd" d="M419.635 262.673C424.271 262.524 429.443 260.778 433.998 261.334C435.252 261.487 438.139 261.803 436.13 263.664C435.169 264.554 430.569 264.094 429.176 264.389C420.665 266.193 411.002 267.356 402.275 267.206C398.189 267.136 394.073 266.808 389.99 266.592C385.909 266.376 385.508 264.716 390.1 264.188C394.869 263.641 399.762 263.844 404.555 263.838C409.593 263.832 414.607 263.01 419.635 262.673Z" fill="black"/>
<path fill-rule="evenodd" clip-rule="evenodd" d="M429.813 251.497C429.367 252.768 428.975 255.685 427.265 255.877C424.871 256.145 424.474 252.03 424.562 250.525C424.669 248.709 425.322 245.692 427.578 246.321C429.484 246.852 429.675 250.043 429.813 251.497Z" fill="black"/>
<path fill-rule="evenodd" clip-rule="evenodd" d="M415.315 250.566C415.665 249.205 415.837 246.135 417.761 246.031C419.911 245.915 420.526 249.113 420.511 250.645C420.497 252.099 419.96 254.847 418.248 255.183C415.926 255.638 415.719 252.121 415.315 250.566Z" fill="black"/>
<path fill-rule="evenodd" clip-rule="evenodd" d="M391.172 253.008C390.475 254.644 390.014 256.897 387.858 255.782C386.191 254.919 385.958 251.44 386.273 249.847C386.599 248.196 387.289 246.303 389.184 247.046C391.369 247.902 391.149 251.206 391.172 253.008Z" fill="black"/>
<path fill-rule="evenodd" clip-rule="evenodd" d="M409.455 251.497C407.4 257.731 403.652 253.513 405.075 248.859C406.563 243.994 409.266 248.719 409.455 251.497Z" fill="black"/>
<path fill-rule="evenodd" clip-rule="evenodd" d="M399.442 251.805C398.871 252.903 398.264 255.271 396.726 255.021C394.84 254.715 394.779 251.083 394.986 249.731C395.167 248.547 395.698 246.574 397.277 246.599C399.558 246.636 399.405 250.384 399.442 251.805Z" fill="black"/>
<path fill-rule="evenodd" clip-rule="evenodd" d="M440.436 253.002C438.906 256.436 436.802 253.478 437.475 251.038C438.474 247.42 440.349 250.626 440.436 253.002Z" fill="black"/>
<path fill-rule="evenodd" clip-rule="evenodd" d="M402.969 263.843C401.299 263.836 399.628 263.83 397.957 263.824C399.629 263.508 401.301 263.386 402.969 263.843Z" fill="black"/>
<path fill-rule="evenodd" clip-rule="evenodd" d="M436.172 261.32C434.723 261.329 433.274 261.338 431.825 261.348C433.272 260.914 434.721 260.904 436.172 261.32Z" fill="black"/>
<path fill-rule="evenodd" clip-rule="evenodd" d="M419.635 262.673C418.475 262.751 417.316 262.829 416.156 262.906C417.316 262.829 418.476 262.751 419.635 262.673Z" fill="black"/>
<path fill-rule="evenodd" clip-rule="evenodd" d="M391.172 253.008C391.161 252.174 391.15 251.341 391.14 250.51C391.569 251.338 391.539 252.171 391.172 253.008Z" fill="black"/>
<path fill-rule="evenodd" clip-rule="evenodd" d="M400.263 267.188C400.935 267.194 401.608 267.2 402.275 267.206C401.6 267.2 400.931 267.194 400.263 267.188Z" fill="black"/>
<path fill-rule="evenodd" clip-rule="evenodd" d="M388.969 266.592C389.65 266.592 390.331 266.592 391.008 266.592C390.324 266.592 389.646 266.592 388.969 266.592Z" fill="black"/>
<path fill-rule="evenodd" clip-rule="evenodd" d="M394.554 263.915C393.606 263.992 392.659 264.07 391.712 264.148C392.66 264.07 393.606 263.992 394.554 263.915Z" fill="black"/>
<path fill-rule="evenodd" clip-rule="evenodd" d="M407.361 263.832C406.425 263.834 405.49 263.836 404.555 263.838C405.49 263.444 406.425 263.432 407.361 263.832Z" fill="black"/>
<path fill-rule="evenodd" clip-rule="evenodd" d="M399.442 251.805C399.419 250.937 399.396 250.069 399.375 249.201C399.398 250.07 399.42 250.938 399.442 251.805Z" fill="black"/>
<path fill-rule="evenodd" clip-rule="evenodd" d="M386.273 249.847C386.268 250.694 386.262 251.541 386.256 252.384C386.261 251.536 386.267 250.692 386.273 249.847Z" fill="black"/>
<path fill-rule="evenodd" clip-rule="evenodd" d="M424.95 262.358C424.123 262.433 423.296 262.507 422.47 262.582C423.297 262.507 424.124 262.433 424.95 262.358Z" fill="black"/>
<path fill-rule="evenodd" clip-rule="evenodd" d="M440.436 253.002C440.409 252.262 440.382 251.522 440.356 250.783C440.383 251.523 440.409 252.262 440.436 253.002Z" fill="black"/>
<path fill-rule="evenodd" clip-rule="evenodd" d="M405.26 267.213C405.835 267.202 406.41 267.191 406.98 267.181C406.403 267.193 405.831 267.203 405.26 267.213Z" fill="black"/>
<path fill-rule="evenodd" clip-rule="evenodd" d="M429.813 251.496C429.762 250.965 429.712 250.432 429.661 249.903C429.712 250.435 429.763 250.966 429.813 251.496Z" fill="black"/>
<path fill-rule="evenodd" clip-rule="evenodd" d="M409.455 251.497C409.418 250.951 409.381 250.404 409.344 249.859C409.381 250.406 409.418 250.951 409.455 251.497Z" fill="black"/>
<path fill-rule="evenodd" clip-rule="evenodd" d="M112.66 91.0476C110.396 90.4533 109.972 87.2702 110.336 85.3151C110.748 84.3729 111.161 83.4311 111.573 82.4889C111.412 82.1405 111.251 81.7922 111.09 81.4438C111.297 79.5034 110.768 78.6602 112.996 79.4461C117.136 80.9068 117.797 90.8978 112.66 91.0476Z" fill="black"/>
<path fill-rule="evenodd" clip-rule="evenodd" d="M146.165 84.893C148.03 84.7461 151.417 86.9192 149.561 89.0217C148.411 90.3241 144.621 89.708 143.075 89.98C141.025 90.3407 138.886 90.8341 139.996 87.761C140.867 85.3476 143.977 84.83 146.165 84.893Z" fill="black"/>
<path fill-rule="evenodd" clip-rule="evenodd" d="M144.203 99.3481C142.309 97.8281 143.154 90.905 146.037 92.1506C149.002 93.4326 145.784 98.349 144.203 99.3481Z" fill="black"/>
<path fill-rule="evenodd" clip-rule="evenodd" d="M110.336 85.3149C110.336 86.0434 110.335 86.7724 110.334 87.4975C109.939 86.7676 109.951 86.041 110.336 85.3149Z" fill="black"/>
<path fill-rule="evenodd" clip-rule="evenodd" d="M112.66 91.0476C113.046 91.0367 113.432 91.0253 113.814 91.0154C113.426 91.0277 113.043 91.0376 112.66 91.0476Z" fill="black"/>
<path fill-rule="evenodd" clip-rule="evenodd" d="M346.531 290.426C346.354 293.575 342.975 291.247 343.214 289.14C343.65 285.317 345.81 289.095 346.531 290.426Z" fill="black"/>
</svg>
