<svg width="1400" height="93" viewBox="0 0 1400 93" fill="none" xmlns="http://www.w3.org/2000/svg">
<mask id="mask0" mask-type="alpha" maskUnits="userSpaceOnUse" x="0" y="0" width="1400" height="93">
<rect width="1400" height="93" fill="#C4C4C4"/>
</mask>
<g mask="url(#mask0)">
<path d="M281.921 -634.588C148.689 -618.686 40.2355 -641.214 2.66259 -654.466C-0.89161 -436.16 -8 18.9102 -8 92.7438C70.1923 76.0602 242.825 35.2388 368.237 59.3767C493.649 83.5146 550.009 83.5146 774.938 59.3767C999.868 35.2388 993.268 92.7438 1168.44 92.7438C1308.58 92.7438 1382.54 31.2158 1402 0.451782V-678.604C1254.75 -628.909 1060.29 -634.588 1008.5 -634.588C956.71 -634.588 898.32 -671.15 711.978 -678.604C525.637 -686.059 448.46 -654.466 281.921 -634.588Z" fill="#E5E5E5"/>
</g>
</svg>
