<svg width="1400" height="93" viewBox="0 0 1400 93" fill="none" xmlns="http://www.w3.org/2000/svg">
<mask id="mask0" mask-type="alpha" maskUnits="userSpaceOnUse" x="0" y="0" width="1400" height="93">
<rect width="1400" height="93" fill="#C4C4C4"/>
</mask>
<g mask="url(#mask0)">
<path d="M279.921 66C146.689 89.2555 38.2355 56.3103 0.662585 36.9307C-2.89161 356.174 -10 1021.65 -10 1129.63C68.1923 1105.23 240.825 1045.53 366.237 1080.83C491.649 1116.13 548.009 1116.13 772.938 1080.83C997.868 1045.53 991.268 1129.63 1166.44 1129.63C1306.58 1129.63 1380.54 1039.65 1400 994.661V1.63227C1252.75 74.3055 1058.29 66 1006.5 66C954.71 66 896.32 12.5333 709.978 1.63227C523.637 -9.26872 446.46 36.9307 279.921 66Z" fill="#E5E5E5"/>
</g>
</svg>
