<svg width="145" height="41" viewBox="0 0 145 41" fill="none" xmlns="http://www.w3.org/2000/svg">
<path d="M55.75 16.04L55.71 9.5L52.53 14.83H50.98L47.82 9.68V16.05H44.59V3.69H47.47L51.81 10.82L56.05 3.69H58.93L58.97 16.04H55.75Z" fill="white"/>
<path d="M69.71 13.64H64.49L63.52 16.04H59.95L65.4 3.69H68.84L74.31 16.04H70.67L69.71 13.64ZM67.77 0H71.12L67.8 2.68H65.4L67.77 0ZM68.69 11.07L67.1 7.11L65.51 11.06H68.69V11.07Z" fill="white"/>
<path d="M80.7 12.76H78.8V16.04H75.3V3.69H80.95C82.07 3.69 83.04 3.88 83.86 4.25C84.68 4.62 85.32 5.15 85.77 5.84C86.22 6.53 86.44 7.34 86.44 8.27C86.44 9.16 86.23 9.94 85.81 10.61C85.39 11.27 84.8 11.8 84.02 12.17L86.69 16.05H82.95L80.7 12.76ZM82.36 6.92C82 6.6 81.46 6.44 80.74 6.44H78.8V10.06H80.74C81.46 10.06 82 9.9 82.36 9.59C82.72 9.28 82.91 8.83 82.91 8.26C82.91 7.68 82.73 7.24 82.36 6.92Z" fill="white"/>
<path d="M91.04 15.47C90.01 14.92 89.2 14.16 88.61 13.18C88.02 12.2 87.73 11.1 87.73 9.86C87.73 8.62 88.02 7.52 88.61 6.54C89.2 5.56 90.01 4.8 91.04 4.25C92.07 3.7 93.23 3.43 94.53 3.43C95.66 3.43 96.68 3.63 97.58 4.03C98.49 4.43 99.24 5.01 99.84 5.76L97.62 7.77C96.82 6.81 95.85 6.32 94.71 6.32C94.04 6.32 93.44 6.47 92.92 6.76C92.4 7.05 91.99 7.47 91.7 8C91.41 8.54 91.27 9.15 91.27 9.84C91.27 10.53 91.41 11.15 91.7 11.68C91.99 12.22 92.39 12.63 92.92 12.92C93.44 13.21 94.04 13.36 94.71 13.36C95.85 13.36 96.82 12.88 97.62 11.91L99.84 13.92C99.24 14.67 98.49 15.25 97.58 15.65C96.67 16.05 95.66 16.25 94.53 16.25C93.23 16.29 92.07 16.02 91.04 15.47Z" fill="white"/>
<path d="M101.39 3.69H104.88V16.04H101.39V3.69Z" fill="white"/>
<path d="M115.65 13.64H110.43L109.46 16.04H105.89L111.34 3.69H114.78L120.25 16.04H116.61L115.65 13.64ZM114.63 11.07L113.04 7.12L111.45 11.07H114.63Z" fill="white"/>
<path d="M56.35 20.39V32.74H53.47L48.02 26.16V32.74H44.6V20.39H47.48L52.93 26.97V20.39H56.35Z" fill="white"/>
<path d="M61.53 32.16C60.49 31.61 59.67 30.84 59.08 29.87C58.49 28.89 58.19 27.79 58.19 26.57C58.19 25.35 58.49 24.25 59.08 23.27C59.67 22.29 60.49 21.53 61.53 20.98C62.57 20.43 63.74 20.15 65.05 20.15C66.36 20.15 67.53 20.43 68.57 20.98C69.61 21.53 70.43 22.3 71.02 23.27C71.61 24.25 71.91 25.35 71.91 26.57C71.91 27.79 71.61 28.89 71.02 29.87C70.43 30.85 69.61 31.61 68.57 32.16C67.53 32.71 66.36 32.99 65.05 32.99C63.74 32.99 62.57 32.71 61.53 32.16ZM66.74 29.65C67.25 29.36 67.65 28.94 67.94 28.41C68.23 27.87 68.38 27.26 68.38 26.57C68.38 25.88 68.23 25.26 67.94 24.73C67.65 24.19 67.25 23.78 66.74 23.49C66.23 23.2 65.67 23.05 65.05 23.05C64.43 23.05 63.86 23.2 63.36 23.49C62.85 23.78 62.45 24.2 62.16 24.73C61.87 25.27 61.72 25.88 61.72 26.57C61.72 27.26 61.87 27.88 62.16 28.41C62.45 28.95 62.85 29.36 63.36 29.65C63.87 29.94 64.43 30.09 65.05 30.09C65.67 30.09 66.24 29.95 66.74 29.65Z" fill="white"/>
<path d="M82.03 26.3H85.12V31.42C84.41 31.93 83.6 32.31 82.68 32.58C81.76 32.85 80.84 32.99 79.93 32.99C78.64 32.99 77.47 32.72 76.44 32.17C75.4 31.62 74.59 30.86 74 29.88C73.41 28.9 73.12 27.8 73.12 26.56C73.12 25.32 73.41 24.22 74 23.24C74.59 22.26 75.41 21.5 76.45 20.95C77.5 20.4 78.68 20.13 80 20.13C81.15 20.13 82.19 20.32 83.11 20.71C84.03 21.1 84.79 21.66 85.4 22.39L83.18 24.4C82.34 23.48 81.34 23.02 80.18 23.02C79.12 23.02 78.27 23.34 77.62 23.98C76.97 24.62 76.65 25.48 76.65 26.55C76.65 27.23 76.8 27.84 77.09 28.38C77.38 28.92 77.8 29.33 78.33 29.63C78.86 29.93 79.47 30.08 80.15 30.08C80.82 30.08 81.45 29.94 82.04 29.67V26.3H82.03Z" fill="white"/>
<path d="M88.76 31.49C87.74 30.49 87.23 29.07 87.23 27.24V20.39H90.72V27.13C90.72 29.11 91.5 30.09 93.07 30.09C94.62 30.09 95.4 29.1 95.4 27.13V20.39H98.84V27.24C98.84 29.08 98.33 30.49 97.31 31.49C96.29 32.49 94.87 32.99 93.03 32.99C91.21 32.99 89.78 32.49 88.76 31.49Z" fill="white"/>
<path d="M111.13 30.04V32.74H101.21V20.39H110.9V23.09H104.67V25.17H110.16V27.78H104.67V30.04H111.13Z" fill="white"/>
<path d="M113.07 20.39H116.56V32.74H113.07V20.39Z" fill="white"/>
<path d="M124.46 29.46H122.55V32.74H119.06V20.39H124.71C125.83 20.39 126.8 20.58 127.62 20.95C128.44 21.32 129.08 21.85 129.53 22.54C129.98 23.23 130.2 24.04 130.2 24.97C130.2 25.86 129.99 26.64 129.57 27.31C129.15 27.97 128.56 28.5 127.78 28.87L130.45 32.75H126.71L124.46 29.46ZM126.12 23.61C125.76 23.29 125.21 23.13 124.5 23.13H122.56V26.75H124.5C125.22 26.75 125.76 26.59 126.12 26.28C126.48 25.97 126.67 25.52 126.67 24.95C126.66 24.38 126.48 23.93 126.12 23.61Z" fill="white"/>
<path d="M140.39 30.34H135.17L134.2 32.74H130.63L136.08 20.39H139.52L145 32.74H141.36L140.39 30.34ZM139.37 27.76L137.78 23.81L136.19 27.76H139.37Z" fill="white"/>
<path d="M47.23 37.43C47.5 37.66 47.64 37.97 47.64 38.38C47.64 38.78 47.5 39.09 47.23 39.32C46.96 39.55 46.58 39.66 46.1 39.66H45.01V40.91H44.73V37.09H46.1C46.58 37.09 46.96 37.2 47.23 37.43ZM47.04 39.14C47.25 38.96 47.36 38.71 47.36 38.38C47.36 38.05 47.25 37.79 47.04 37.61C46.83 37.43 46.51 37.34 46.11 37.34H45.02V39.41H46.11C46.51 39.41 46.82 39.32 47.04 39.14Z" fill="white"/>
<path d="M51.66 38.31C51.85 38.49 51.94 38.76 51.94 39.1V40.91H51.68V40.4C51.59 40.57 51.46 40.7 51.28 40.79C51.11 40.88 50.9 40.93 50.65 40.93C50.33 40.93 50.08 40.86 49.9 40.71C49.72 40.56 49.62 40.36 49.62 40.12C49.62 39.88 49.7 39.69 49.87 39.54C50.04 39.39 50.31 39.32 50.68 39.32H51.66V39.1C51.66 38.83 51.59 38.63 51.44 38.49C51.3 38.35 51.09 38.28 50.81 38.28C50.62 38.28 50.44 38.31 50.27 38.38C50.1 38.45 49.95 38.53 49.83 38.64L49.69 38.44C49.83 38.31 50 38.21 50.2 38.14C50.4 38.07 50.61 38.03 50.83 38.03C51.2 38.04 51.47 38.13 51.66 38.31ZM51.3 40.55C51.47 40.44 51.59 40.28 51.67 40.07V39.53H50.7C50.42 39.53 50.22 39.58 50.09 39.68C49.96 39.78 49.9 39.92 49.9 40.1C49.9 40.29 49.97 40.43 50.11 40.54C50.25 40.65 50.44 40.7 50.69 40.7C50.93 40.71 51.14 40.66 51.3 40.55Z" fill="white"/>
<path d="M54.49 36.86H54.76V40.91H54.49V36.86Z" fill="white"/>
<path d="M59.75 39.55H57.3C57.31 39.77 57.36 39.97 57.47 40.14C57.58 40.31 57.72 40.45 57.9 40.54C58.08 40.63 58.28 40.68 58.51 40.68C58.7 40.68 58.87 40.65 59.03 40.58C59.19 40.51 59.32 40.41 59.43 40.28L59.59 40.46C59.47 40.61 59.31 40.72 59.12 40.8C58.93 40.88 58.73 40.92 58.51 40.92C58.23 40.92 57.97 40.86 57.75 40.73C57.53 40.61 57.35 40.43 57.23 40.22C57.1 40 57.04 39.75 57.04 39.47C57.04 39.19 57.1 38.94 57.22 38.72C57.34 38.5 57.5 38.33 57.71 38.2C57.92 38.08 58.15 38.01 58.41 38.01C58.67 38.01 58.9 38.07 59.11 38.19C59.32 38.31 59.48 38.48 59.6 38.7C59.72 38.92 59.78 39.17 59.78 39.44L59.75 39.55ZM57.85 38.42C57.69 38.51 57.56 38.64 57.46 38.8C57.36 38.96 57.31 39.15 57.29 39.35H59.47C59.46 39.15 59.4 38.96 59.31 38.8C59.21 38.64 59.08 38.51 58.92 38.42C58.76 38.33 58.58 38.28 58.38 38.28C58.19 38.28 58.01 38.33 57.85 38.42Z" fill="white"/>
<path d="M62.09 40.83C61.88 40.76 61.72 40.67 61.6 40.57L61.73 40.35C61.85 40.45 62 40.53 62.18 40.6C62.36 40.67 62.56 40.7 62.76 40.7C63.05 40.7 63.26 40.65 63.4 40.56C63.54 40.47 63.6 40.33 63.6 40.17C63.6 40.05 63.56 39.96 63.49 39.89C63.42 39.82 63.32 39.77 63.21 39.74C63.1 39.71 62.95 39.67 62.76 39.64C62.53 39.6 62.35 39.56 62.21 39.51C62.07 39.46 61.95 39.39 61.85 39.28C61.75 39.17 61.7 39.03 61.7 38.84C61.7 38.61 61.79 38.43 61.98 38.28C62.17 38.13 62.43 38.06 62.78 38.06C62.96 38.06 63.14 38.09 63.32 38.14C63.5 38.19 63.64 38.26 63.76 38.34L63.63 38.56C63.51 38.48 63.38 38.41 63.23 38.37C63.08 38.33 62.93 38.3 62.77 38.3C62.5 38.3 62.3 38.35 62.17 38.45C62.04 38.55 61.97 38.68 61.97 38.84C61.97 38.97 62.01 39.07 62.08 39.14C62.16 39.21 62.25 39.26 62.36 39.3C62.47 39.33 62.63 39.37 62.83 39.41C63.05 39.45 63.23 39.49 63.37 39.54C63.51 39.59 63.62 39.66 63.72 39.76C63.81 39.86 63.86 40 63.86 40.18C63.86 40.42 63.76 40.61 63.57 40.75C63.37 40.89 63.1 40.96 62.74 40.96C62.51 40.94 62.29 40.9 62.09 40.83Z" fill="white"/>
<path d="M67.46 40.73C67.39 40.8 67.3 40.85 67.2 40.88C67.1 40.91 66.99 40.93 66.88 40.93C66.63 40.93 66.44 40.86 66.31 40.73C66.18 40.59 66.11 40.4 66.11 40.16V38.3H65.59V38.06H66.11V37.44H66.38V38.06H67.29V38.3H66.38V40.14C66.38 40.33 66.42 40.47 66.51 40.56C66.6 40.66 66.73 40.7 66.91 40.7C67.09 40.7 67.24 40.65 67.35 40.54L67.46 40.73Z" fill="white"/>
<path d="M70.31 38.21C70.5 38.1 70.72 38.04 70.99 38.04V38.31L70.92 38.3C70.6 38.3 70.36 38.4 70.18 38.6C70 38.8 69.91 39.07 69.91 39.43V40.92H69.64V38.07H69.9V38.69C69.98 38.48 70.12 38.32 70.31 38.21Z" fill="white"/>
<path d="M74.93 38.31C75.12 38.49 75.21 38.76 75.21 39.1V40.91H74.95V40.4C74.86 40.57 74.73 40.7 74.55 40.79C74.37 40.88 74.17 40.93 73.92 40.93C73.6 40.93 73.35 40.86 73.17 40.71C72.99 40.56 72.89 40.36 72.89 40.12C72.89 39.88 72.97 39.69 73.14 39.54C73.31 39.39 73.58 39.32 73.95 39.32H74.93V39.1C74.93 38.83 74.86 38.63 74.71 38.49C74.57 38.35 74.36 38.28 74.08 38.28C73.89 38.28 73.71 38.31 73.54 38.38C73.37 38.45 73.22 38.53 73.1 38.64L72.96 38.44C73.1 38.31 73.27 38.21 73.47 38.14C73.67 38.07 73.88 38.03 74.1 38.03C74.47 38.04 74.74 38.13 74.93 38.31ZM74.56 40.55C74.73 40.44 74.85 40.28 74.93 40.07V39.53H73.96C73.68 39.53 73.48 39.58 73.35 39.68C73.22 39.78 73.16 39.92 73.16 40.1C73.16 40.29 73.23 40.43 73.37 40.54C73.51 40.65 73.7 40.7 73.95 40.7C74.2 40.71 74.4 40.66 74.56 40.55Z" fill="white"/>
<path d="M77.82 40.83C77.61 40.76 77.45 40.67 77.33 40.57L77.46 40.35C77.58 40.45 77.73 40.53 77.91 40.6C78.09 40.67 78.29 40.7 78.49 40.7C78.78 40.7 78.99 40.65 79.13 40.56C79.27 40.47 79.33 40.33 79.33 40.17C79.33 40.05 79.29 39.96 79.22 39.89C79.15 39.82 79.05 39.77 78.94 39.74C78.83 39.71 78.68 39.67 78.49 39.64C78.26 39.6 78.08 39.56 77.94 39.51C77.8 39.46 77.68 39.39 77.59 39.28C77.49 39.17 77.44 39.03 77.44 38.84C77.44 38.61 77.53 38.43 77.72 38.28C77.91 38.13 78.17 38.06 78.52 38.06C78.7 38.06 78.88 38.09 79.06 38.14C79.24 38.19 79.38 38.26 79.5 38.34L79.37 38.56C79.25 38.48 79.12 38.41 78.97 38.37C78.82 38.33 78.67 38.3 78.51 38.3C78.24 38.3 78.04 38.35 77.91 38.45C77.78 38.55 77.71 38.68 77.71 38.84C77.71 38.97 77.75 39.07 77.82 39.14C77.9 39.21 77.99 39.26 78.1 39.3C78.21 39.33 78.37 39.37 78.57 39.41C78.79 39.45 78.97 39.49 79.11 39.54C79.25 39.59 79.36 39.66 79.46 39.76C79.56 39.86 79.6 40 79.6 40.18C79.6 40.42 79.5 40.61 79.3 40.75C79.1 40.89 78.83 40.96 78.47 40.96C78.25 40.94 78.03 40.9 77.82 40.83Z" fill="white"/>
<path d="M87.38 40.97L86.83 40.39C86.67 40.57 86.49 40.71 86.27 40.8C86.05 40.89 85.82 40.94 85.55 40.94C85.31 40.94 85.09 40.9 84.91 40.82C84.72 40.74 84.57 40.63 84.47 40.48C84.36 40.33 84.31 40.17 84.31 39.98C84.31 39.76 84.38 39.55 84.53 39.37C84.68 39.19 84.93 38.99 85.29 38.78L85.28 38.77C85.09 38.57 84.96 38.41 84.89 38.28C84.82 38.15 84.79 38 84.79 37.85C84.79 37.61 84.87 37.42 85.04 37.28C85.2 37.14 85.42 37.07 85.7 37.07C85.96 37.07 86.16 37.13 86.31 37.26C86.46 37.39 86.54 37.57 86.54 37.79C86.54 37.98 86.48 38.15 86.35 38.3C86.22 38.45 85.99 38.62 85.67 38.81L86.8 40.01C86.92 39.79 87.01 39.53 87.07 39.23L87.29 39.3C87.22 39.65 87.11 39.95 86.96 40.18L87.53 40.78L87.38 40.97ZM86.67 40.21L85.46 38.94C85.12 39.14 84.89 39.31 84.77 39.46C84.64 39.61 84.58 39.78 84.58 39.96C84.58 40.18 84.67 40.36 84.86 40.5C85.04 40.64 85.28 40.71 85.57 40.71C86.03 40.71 86.4 40.55 86.67 40.21ZM85.15 38.2C85.21 38.31 85.33 38.46 85.52 38.66C85.82 38.49 86.03 38.34 86.14 38.21C86.25 38.09 86.31 37.95 86.31 37.8C86.31 37.64 86.26 37.51 86.15 37.42C86.04 37.33 85.9 37.28 85.71 37.28C85.51 37.28 85.35 37.33 85.23 37.44C85.12 37.54 85.06 37.68 85.06 37.85C85.06 37.97 85.09 38.09 85.15 38.2Z" fill="white"/>
<path d="M93.25 37.34H91.87V37.09H94.9V37.34H93.52V40.91H93.24V37.34H93.25Z" fill="white"/>
<path d="M97.52 38.21C97.71 38.1 97.93 38.04 98.2 38.04V38.31L98.13 38.3C97.81 38.3 97.57 38.4 97.39 38.6C97.21 38.8 97.12 39.07 97.12 39.43V40.92H96.85V38.07H97.11V38.69C97.2 38.48 97.33 38.32 97.52 38.21Z" fill="white"/>
<path d="M102.75 39.55H100.3C100.31 39.77 100.36 39.97 100.47 40.14C100.58 40.31 100.72 40.45 100.9 40.54C101.08 40.63 101.28 40.68 101.51 40.68C101.7 40.68 101.87 40.65 102.03 40.58C102.19 40.51 102.32 40.41 102.43 40.28L102.59 40.46C102.47 40.61 102.31 40.72 102.12 40.8C101.93 40.88 101.73 40.92 101.51 40.92C101.23 40.92 100.97 40.86 100.75 40.73C100.53 40.61 100.35 40.43 100.23 40.22C100.1 40 100.04 39.75 100.04 39.47C100.04 39.19 100.1 38.94 100.22 38.72C100.34 38.5 100.5 38.33 100.71 38.2C100.92 38.08 101.15 38.01 101.41 38.01C101.67 38.01 101.9 38.07 102.11 38.19C102.32 38.31 102.48 38.48 102.6 38.7C102.72 38.92 102.78 39.17 102.78 39.44L102.75 39.55ZM100.85 38.42C100.69 38.51 100.56 38.64 100.46 38.8C100.36 38.96 100.31 39.15 100.29 39.35H102.47C102.46 39.15 102.4 38.96 102.31 38.8C102.21 38.64 102.08 38.51 101.92 38.42C101.76 38.33 101.58 38.28 101.38 38.28C101.19 38.28 101.01 38.33 100.85 38.42Z" fill="white"/>
<path d="M105 37.31C104.96 37.27 104.93 37.22 104.93 37.15C104.93 37.09 104.95 37.04 105 36.99C105.04 36.95 105.1 36.92 105.16 36.92C105.22 36.92 105.27 36.94 105.32 36.98C105.36 37.02 105.39 37.07 105.39 37.14C105.39 37.2 105.37 37.25 105.32 37.3C105.28 37.34 105.22 37.37 105.16 37.37C105.09 37.37 105.04 37.35 105 37.31ZM105.02 38.06H105.29V40.91H105.02V38.06Z" fill="white"/>
<path d="M110.1 38.35C110.31 38.56 110.41 38.86 110.41 39.25V40.92H110.14V39.28C110.14 38.96 110.06 38.72 109.9 38.55C109.74 38.38 109.51 38.3 109.22 38.3C108.88 38.3 108.62 38.4 108.43 38.6C108.24 38.8 108.14 39.07 108.14 39.41V40.93H107.87V38.08H108.13V38.7C108.23 38.5 108.38 38.34 108.57 38.23C108.76 38.12 109 38.06 109.26 38.06C109.61 38.04 109.9 38.14 110.1 38.35Z" fill="white"/>
<path d="M114.74 38.31C114.93 38.49 115.02 38.76 115.02 39.1V40.91H114.76V40.4C114.67 40.57 114.54 40.7 114.36 40.79C114.19 40.88 113.98 40.93 113.73 40.93C113.41 40.93 113.16 40.86 112.98 40.71C112.8 40.56 112.7 40.36 112.7 40.12C112.7 39.88 112.78 39.69 112.95 39.54C113.12 39.39 113.39 39.32 113.76 39.32H114.74V39.1C114.74 38.83 114.67 38.63 114.52 38.49C114.38 38.35 114.17 38.28 113.89 38.28C113.7 38.28 113.52 38.31 113.35 38.38C113.18 38.45 113.03 38.53 112.91 38.64L112.77 38.44C112.91 38.31 113.08 38.21 113.28 38.14C113.48 38.07 113.69 38.03 113.91 38.03C114.27 38.04 114.55 38.13 114.74 38.31ZM114.37 40.55C114.54 40.44 114.66 40.28 114.74 40.07V39.53H113.77C113.49 39.53 113.29 39.58 113.16 39.68C113.03 39.78 112.97 39.92 112.97 40.1C112.97 40.29 113.04 40.43 113.18 40.54C113.32 40.65 113.51 40.7 113.76 40.7C114.01 40.71 114.21 40.66 114.37 40.55Z" fill="white"/>
<path d="M121.95 38.35C122.15 38.56 122.25 38.86 122.25 39.25V40.92H121.98V39.28C121.98 38.96 121.9 38.72 121.74 38.55C121.58 38.38 121.37 38.3 121.08 38.3C120.76 38.3 120.51 38.4 120.32 38.6C120.13 38.8 120.04 39.07 120.04 39.41V40.93H119.77V39.29C119.77 38.97 119.69 38.73 119.54 38.56C119.38 38.39 119.16 38.31 118.88 38.31C118.56 38.31 118.31 38.41 118.12 38.61C117.93 38.81 117.84 39.08 117.84 39.42V40.94H117.57V38.09H117.83V38.7C117.92 38.5 118.07 38.34 118.25 38.23C118.44 38.12 118.66 38.06 118.92 38.06C119.18 38.06 119.4 38.12 119.58 38.23C119.76 38.35 119.89 38.52 119.97 38.74C120.06 38.53 120.21 38.36 120.42 38.24C120.62 38.12 120.86 38.05 121.13 38.05C121.47 38.04 121.75 38.14 121.95 38.35Z" fill="white"/>
<path d="M127.21 39.55H124.76C124.77 39.77 124.82 39.97 124.93 40.14C125.04 40.31 125.18 40.45 125.36 40.54C125.54 40.63 125.74 40.68 125.97 40.68C126.16 40.68 126.33 40.65 126.49 40.58C126.65 40.51 126.78 40.41 126.89 40.28L127.05 40.46C126.93 40.61 126.77 40.72 126.58 40.8C126.39 40.88 126.19 40.92 125.97 40.92C125.69 40.92 125.43 40.86 125.21 40.73C124.99 40.61 124.81 40.43 124.69 40.22C124.56 40 124.5 39.75 124.5 39.47C124.5 39.19 124.56 38.94 124.68 38.72C124.8 38.5 124.96 38.33 125.17 38.2C125.38 38.08 125.61 38.01 125.87 38.01C126.13 38.01 126.36 38.07 126.57 38.19C126.78 38.31 126.94 38.48 127.06 38.7C127.18 38.92 127.24 39.17 127.24 39.44L127.21 39.55ZM125.32 38.42C125.16 38.51 125.03 38.64 124.93 38.8C124.83 38.96 124.78 39.15 124.76 39.35H126.94C126.93 39.15 126.87 38.96 126.78 38.8C126.68 38.64 126.55 38.51 126.39 38.42C126.23 38.33 126.05 38.28 125.85 38.28C125.66 38.28 125.48 38.33 125.32 38.42Z" fill="white"/>
<path d="M131.72 38.35C131.93 38.56 132.03 38.86 132.03 39.25V40.92H131.76V39.28C131.76 38.96 131.68 38.72 131.52 38.55C131.36 38.38 131.13 38.3 130.84 38.3C130.5 38.3 130.24 38.4 130.05 38.6C129.86 38.8 129.76 39.07 129.76 39.41V40.93H129.49V38.08H129.75V38.7C129.85 38.5 130 38.34 130.19 38.23C130.38 38.12 130.62 38.06 130.88 38.06C131.23 38.04 131.52 38.14 131.72 38.35Z" fill="white"/>
<path d="M135.99 40.73C135.92 40.8 135.83 40.85 135.73 40.88C135.63 40.91 135.52 40.93 135.4 40.93C135.15 40.93 134.96 40.86 134.83 40.73C134.7 40.59 134.63 40.4 134.63 40.16V38.3H134.11V38.06H134.63V37.44H134.9V38.06H135.81V38.3H134.9V40.14C134.9 40.33 134.94 40.47 135.03 40.56C135.12 40.66 135.25 40.7 135.43 40.7C135.61 40.7 135.76 40.65 135.87 40.54L135.99 40.73Z" fill="white"/>
<path d="M138.45 40.75C138.23 40.63 138.06 40.45 137.94 40.23C137.82 40.01 137.75 39.76 137.75 39.48C137.75 39.2 137.81 38.95 137.94 38.73C138.06 38.51 138.23 38.34 138.45 38.21C138.67 38.09 138.91 38.02 139.18 38.02C139.45 38.02 139.69 38.08 139.91 38.21C140.13 38.33 140.3 38.51 140.42 38.73C140.54 38.95 140.61 39.2 140.61 39.48C140.61 39.76 140.55 40.01 140.42 40.23C140.3 40.45 140.13 40.62 139.91 40.75C139.69 40.87 139.45 40.94 139.18 40.94C138.91 40.94 138.67 40.87 138.45 40.75ZM139.77 40.54C139.94 40.44 140.08 40.3 140.18 40.11C140.28 39.93 140.33 39.72 140.33 39.49C140.33 39.26 140.28 39.05 140.18 38.87C140.08 38.69 139.94 38.55 139.77 38.44C139.6 38.34 139.4 38.29 139.18 38.29C138.96 38.29 138.77 38.34 138.59 38.44C138.42 38.54 138.28 38.68 138.18 38.87C138.08 39.05 138.03 39.26 138.03 39.49C138.03 39.72 138.08 39.93 138.18 40.11C138.28 40.29 138.42 40.43 138.59 40.54C138.76 40.64 138.96 40.69 139.18 40.69C139.4 40.69 139.59 40.64 139.77 40.54Z" fill="white"/>
<path d="M142.93 40.83C142.72 40.76 142.56 40.67 142.44 40.57L142.57 40.35C142.69 40.45 142.84 40.53 143.02 40.6C143.2 40.67 143.4 40.7 143.6 40.7C143.89 40.7 144.1 40.65 144.24 40.56C144.38 40.47 144.44 40.33 144.44 40.17C144.44 40.05 144.4 39.96 144.33 39.89C144.26 39.82 144.16 39.77 144.05 39.74C143.94 39.71 143.79 39.67 143.6 39.64C143.37 39.6 143.19 39.56 143.05 39.51C142.91 39.46 142.79 39.39 142.7 39.28C142.6 39.17 142.55 39.03 142.55 38.84C142.55 38.61 142.64 38.43 142.83 38.28C143.02 38.13 143.28 38.06 143.63 38.06C143.81 38.06 143.99 38.09 144.17 38.14C144.35 38.19 144.49 38.26 144.61 38.34L144.48 38.56C144.36 38.48 144.23 38.41 144.08 38.37C143.93 38.33 143.78 38.3 143.62 38.3C143.35 38.3 143.15 38.35 143.02 38.45C142.89 38.55 142.82 38.68 142.82 38.84C142.82 38.97 142.86 39.07 142.93 39.14C143.01 39.21 143.1 39.26 143.21 39.3C143.32 39.33 143.48 39.37 143.68 39.41C143.9 39.45 144.08 39.49 144.22 39.54C144.36 39.59 144.47 39.66 144.57 39.76C144.67 39.86 144.71 40 144.71 40.18C144.71 40.42 144.61 40.61 144.41 40.75C144.21 40.89 143.94 40.96 143.58 40.96C143.36 40.94 143.14 40.9 142.93 40.83Z" fill="white"/>
<path d="M25.88 1.2C29.17 1.25 32.36 2.1 35.13 4.21C37.28 5.85 38.83 7.92 39.39 10.63C39.56 11.47 39.6 12.32 39.59 13.18C39.59 13.39 39.51 13.49 39.32 13.58C37.92 14.21 36.52 14.86 35.13 15.5C34.71 15.69 34.52 16 34.58 16.36C34.64 16.73 34.94 16.97 35.41 17C36.7 17.1 37.73 18.03 37.96 19.3C38.18 20.55 37.53 21.8 36.39 22.33C35.21 22.87 33.83 22.56 33.04 21.58C32.22 20.56 32.18 19.18 32.94 18.14C33.22 17.75 33.25 17.38 33.01 17.09C32.76 16.79 32.42 16.74 31.97 16.94C30.16 17.77 28.36 18.59 26.56 19.43C26.32 19.54 26.23 19.52 26.12 19.27C25.3 17.45 24.46 15.64 23.62 13.82C23.51 13.57 23.48 13.34 23.71 13.15C23.95 12.95 24.18 13.04 24.41 13.21C25.7 14.15 27.38 13.99 28.48 12.84C29.53 11.74 29.6 10.02 28.64 8.8C27.88 7.83 26.56 7.41 25.37 7.76C24.13 8.12 23.27 9.16 23.15 10.48C23.12 10.76 23.05 11 22.75 11.06C22.44 11.11 22.29 10.91 22.17 10.65C21.02 8.14 19.87 5.63 18.71 3.12C18.59 2.87 18.62 2.77 18.88 2.65C21.05 1.68 23.34 1.22 25.88 1.2Z" fill="white"/>
<path d="M35.18 22.65C34.34 22.65 33.54 22.29 32.99 21.61C32.16 20.57 32.11 19.17 32.89 18.11C33.16 17.74 33.18 17.39 32.96 17.12C32.73 16.84 32.4 16.79 31.98 16.98L31.94 17C30.18 17.81 28.35 18.64 26.56 19.47C26.46 19.52 26.35 19.56 26.25 19.52C26.17 19.49 26.11 19.42 26.05 19.28C25.34 17.71 24.61 16.13 23.9 14.59L23.55 13.83C23.46 13.63 23.37 13.33 23.65 13.1C23.93 12.87 24.19 13 24.41 13.16C25.68 14.08 27.33 13.93 28.42 12.8C29.45 11.73 29.52 10.02 28.58 8.82C27.83 7.87 26.54 7.46 25.36 7.8C24.13 8.16 23.3 9.19 23.17 10.48C23.14 10.77 23.07 11.04 22.73 11.1C22.38 11.16 22.21 10.92 22.1 10.67C20.93 8.12 19.79 5.62 18.64 3.14C18.57 2.99 18.55 2.9 18.59 2.81C18.62 2.73 18.7 2.67 18.84 2.6C20.98 1.64 23.28 1.16 25.87 1.13C29.47 1.19 32.6 2.2 35.15 4.15C37.5 5.94 38.9 8.05 39.43 10.6C39.58 11.34 39.65 12.15 39.64 13.16C39.64 13.38 39.55 13.51 39.34 13.6C38.07 14.17 36.79 14.77 35.54 15.34L35.14 15.52C34.74 15.7 34.56 15.98 34.62 16.33C34.68 16.68 34.96 16.9 35.4 16.93C36.72 17.03 37.76 17.98 37.99 19.27C38.22 20.54 37.56 21.81 36.39 22.35C36.01 22.56 35.59 22.65 35.18 22.65ZM32.44 16.78C32.68 16.78 32.88 16.88 33.03 17.07C33.28 17.38 33.26 17.77 32.96 18.18C32.21 19.2 32.25 20.56 33.06 21.56C33.84 22.53 35.2 22.84 36.36 22.3C37.49 21.78 38.12 20.55 37.9 19.33C37.68 18.08 36.67 17.17 35.39 17.07C34.9 17.03 34.58 16.78 34.52 16.39C34.46 16 34.66 15.68 35.1 15.48L35.5 15.3C36.74 14.73 38.03 14.13 39.3 13.56C39.48 13.48 39.54 13.39 39.54 13.2C39.55 12.2 39.49 11.39 39.34 10.66C38.82 8.14 37.43 6.04 35.1 4.27C32.57 2.34 29.46 1.33 25.88 1.27C23.31 1.29 21.02 1.77 18.89 2.73C18.77 2.78 18.71 2.83 18.69 2.89C18.67 2.94 18.69 3.02 18.74 3.14C19.89 5.62 21.03 8.11 22.2 10.67C22.3 10.9 22.44 11.1 22.73 11.05C22.99 11 23.07 10.81 23.09 10.52C23.22 9.19 24.08 8.13 25.35 7.76C26.56 7.4 27.9 7.83 28.67 8.81C29.64 10.04 29.57 11.81 28.51 12.92C27.39 14.1 25.68 14.25 24.37 13.3C24.14 13.13 23.95 13.06 23.73 13.24C23.55 13.39 23.53 13.57 23.66 13.85L24 14.57C24.71 16.11 25.44 17.69 26.15 19.26C26.2 19.37 26.24 19.43 26.29 19.45C26.34 19.47 26.41 19.45 26.52 19.4C28.31 18.57 30.13 17.73 31.9 16.93L31.94 16.91C32.12 16.82 32.29 16.78 32.44 16.78Z" fill="white"/>
<path d="M1.51001 22.25C1.82001 21.89 2.08001 21.6 2.34001 21.31C2.82001 20.76 3.32001 20.23 3.71001 19.6C3.90001 19.3 3.99001 18.95 3.76001 18.68C3.02001 17.81 3.15001 16.8 3.24001 15.79C3.41001 13.73 3.88001 11.76 4.87001 9.93C6.38001 7.15 8.69001 5.37 11.7 4.46C12.98 4.08 14.28 3.89 15.61 3.82C15.88 3.81 15.93 3.88 15.93 4.13C15.92 6.88 15.93 9.63 15.92 12.38C15.92 12.61 15.92 12.83 16.07 13.02C16.43 13.51 17.07 13.44 17.39 12.88C17.82 12.13 18.44 11.64 19.29 11.45C20.49 11.19 21.68 11.73 22.32 12.84C22.88 13.82 22.75 15.18 22 16.02C21.16 16.96 19.86 17.26 18.75 16.77C18.15 16.5 17.71 16.08 17.39 15.51C17.17 15.13 16.86 14.98 16.51 15.06C16.15 15.15 15.93 15.45 15.93 15.9C15.93 17.89 15.92 19.87 15.94 21.86C15.94 22.15 15.88 22.24 15.57 22.24C13.69 22.22 11.82 22.23 9.94001 22.23C9.75001 22.23 9.56001 22.23 9.41001 22.07C9.19001 21.82 9.28001 21.5 9.62001 21.3C10.65 20.71 11.2 19.82 11.24 18.64C11.29 17.14 10.23 15.85 8.76001 15.55C7.31001 15.25 5.82001 16.07 5.28001 17.46C4.74001 18.86 5.27001 20.43 6.55001 21.22C6.64001 21.27 6.73001 21.32 6.81001 21.37C6.99001 21.49 7.05001 21.66 7.01001 21.87C6.97001 22.06 6.83001 22.18 6.65001 22.23C6.60001 22.24 6.54001 22.24 6.48001 22.24C4.85001 22.25 3.23001 22.25 1.51001 22.25Z" fill="white"/>
<path d="M15.91 36.45C15.91 37.84 15.9 39.24 15.92 40.63C15.92 40.87 15.86 40.97 15.6 40.96C14.75 40.94 13.89 40.95 13.04 40.96C12.81 40.96 12.7 40.87 12.7 40.66C12.69 40.23 12.68 39.81 12.68 39.38C12.67 38.67 12.71 37.96 12.53 37.27C12.5 37.14 12.46 37.01 12.41 36.89C12.19 36.34 11.86 36.1 11.28 36.15C9.70001 36.28 8.12001 36.25 6.53001 36.22C5.94001 36.21 5.34001 36.18 4.75001 36.17C4.33001 36.16 4.07001 35.95 3.90001 35.57C3.62001 34.96 3.80001 34.36 3.87001 33.75C3.94001 33.08 4.00001 32.42 3.65001 31.8C3.48001 31.5 3.27001 31.25 2.97001 31.07C2.53001 30.81 2.52001 30.57 2.88001 30.19C3.01001 30.06 3.25001 29.97 3.20001 29.75C3.14001 29.53 2.88001 29.53 2.69001 29.48C2.33001 29.38 2.25001 29.25 2.39001 28.85C2.58001 28.32 2.80001 27.79 3.00001 27.25C3.26001 26.53 3.22001 26.43 2.50001 26.15C2.17001 26.02 1.81001 25.94 1.47001 25.84C1.25001 25.78 1.04001 25.72 0.830006 25.64C5.66244e-06 25.35 -0.209994 24.78 0.210006 24.01C0.220006 23.99 0.230006 23.97 0.240006 23.95C1.04001 22.54 1.04001 22.54 2.63001 22.54C3.88001 22.54 5.12001 22.54 6.37001 22.54C6.86001 22.54 7.17001 22.34 7.26001 21.98C7.36001 21.58 7.20001 21.29 6.75001 21.03C5.62001 20.4 5.08001 19.04 5.45001 17.79C5.84001 16.49 7.06001 15.69 8.45001 15.8C9.68001 15.9 10.75 16.95 10.91 18.2C11.06 19.4 10.54 20.46 9.48001 21.05C9.06001 21.29 8.90001 21.6 9.01001 21.99C9.11001 22.34 9.41001 22.54 9.88001 22.54C11.77 22.54 13.65 22.55 15.54 22.54C15.82 22.54 15.9 22.61 15.9 22.89C15.89 24.87 15.89 26.84 15.9 28.82C15.9 29.08 15.88 29.33 15.58 29.41C15.27 29.49 15.08 29.34 14.93 29.07C14.25 27.83 12.79 27.22 11.45 27.6C10.05 27.99 9.11001 29.26 9.15001 30.68C9.19001 32.04 10.17 33.25 11.5 33.59C12.81 33.92 14.19 33.34 14.89 32.16C14.94 32.08 14.98 32 15.03 31.93C15.16 31.75 15.34 31.67 15.56 31.73C15.78 31.79 15.89 31.95 15.89 32.18C15.89 32.45 15.89 32.72 15.89 32.99V36.45H15.91Z" fill="white"/>
<path d="M29.38 37.49C29.37 37.47 29.37 37.45 29.36 37.42C29.29 37.17 29.23 36.92 29.17 36.66C29.15 36.61 29.14 36.54 29.11 36.49C28.33 33.55 28.13 31.91 28.12 31.76C28.09 30.54 28.23 29.33 28.39 28.12C28.59 26.58 28.9 25.09 29.95 23.86C30.27 23.49 30.51 23.03 30.71 22.53H30.4C28.95 22.53 27.5 22.53 26.05 22.53C25.76 22.53 25.49 22.55 25.4 22.88C25.31 23.2 25.52 23.37 25.77 23.52C27 24.23 27.59 25.64 27.23 26.98C26.86 28.34 25.63 29.28 24.22 29.28C22.83 29.27 21.6 28.31 21.26 26.97C20.91 25.61 21.51 24.21 22.74 23.52C22.99 23.38 23.18 23.22 23.1 22.91C23.02 22.58 22.76 22.54 22.47 22.54C20.52 22.55 18.56 22.55 16.61 22.54C16.29 22.54 16.19 22.61 16.19 22.94C16.21 24.91 16.2 26.87 16.2 28.84C16.2 29.04 16.19 29.24 16.06 29.42C15.75 29.85 15.07 29.89 14.68 29.18C13.88 27.75 12 27.34 10.68 28.27C9.29 29.24 9.04 31.14 10.13 32.42C11.2 33.67 13.1 33.74 14.26 32.57C14.47 32.36 14.62 32.11 14.77 31.86C14.98 31.51 15.31 31.38 15.65 31.48C15.98 31.58 16.18 31.86 16.19 32.25C16.19 32.35 16.19 32.45 16.19 32.55C16.19 35.23 16.19 37.92 16.18 40.6C16.18 40.89 16.24 41 16.56 41C20.73 40.99 24.89 40.99 29.06 40.99C29.22 40.99 29.38 40.99 29.53 40.97C29.91 40.93 30.14 40.67 30.12 40.28C30.11 40.11 30.06 39.95 30.02 39.79C29.81 39.02 29.58 38.26 29.38 37.49Z" fill="white"/>
</svg>
