<svg width="1371" height="66" viewBox="0 0 1371 66" fill="none" xmlns="http://www.w3.org/2000/svg">
<mask id="mask0" mask-type="alpha" maskUnits="userSpaceOnUse" x="0" y="0" width="1371" height="66">
<rect x="1371" y="66" width="1371" height="66" transform="rotate(180 1371 66)" fill="#C4C4C4"/>
</mask>
<g mask="url(#mask0)">
<path d="M1097.5 60.6747C1253.5 83.8747 1349.5 25.6747 1378 -6.32531V-485.325C1305.17 -505.492 1128.8 -547.525 1006 -554.325C852.5 -562.825 721.5 -502.825 563 -485.325C404.5 -467.825 416.5 -504.325 291 -523.325C190.6 -538.525 54.8334 -493.992 -0.5 -469.825V0.674805C87.5 20.6748 289 60.6747 391 60.6747C518.5 60.6747 534 17.6748 709.5 16.1748C885 14.6748 902.5 31.6747 1097.5 60.6747Z" fill="#5D4795"/>
</g>
</svg>
