<svg width="1371" height="66" viewBox="0 0 1371 66" fill="none" xmlns="http://www.w3.org/2000/svg">
<mask id="mask0" mask-type="alpha" maskUnits="userSpaceOnUse" x="0" y="0" width="1371" height="66">
<rect width="1371" height="66" fill="#C4C4C4"/>
</mask>
<g mask="url(#mask0)">
<path d="M273.5 5.32531C117.5 -17.8747 21.5 40.3253 -7 72.3253V551.325C65.8333 571.492 242.2 613.525 365 620.325C518.5 628.825 649.5 568.825 808 551.325C966.5 533.825 954.5 570.325 1080 589.325C1180.4 604.525 1316.17 559.992 1371.5 535.825V65.3252C1283.5 45.3252 1082 5.32531 980 5.32531C852.5 5.32531 837 48.3252 661.5 49.8252C486 51.3252 468.5 34.3253 273.5 5.32531Z" fill="#5D4795"/>
</g>
</svg>
